<?xml version="1.0" encoding="UTF-8"?>
<!-- Generator: CustomSymbols v2.7.2.48 by @serious_bret https://bretlester.com/app_content/CustomSymbols/ -->
<!-- Guides: Left/Right 0.005/0.005 Cap/Base -0.05/-0.05 -->
<!-- Settings: RefScale 1.0 Min/Max Stroke Scales 0.5/2.21 -->
<!DOCTYPE svg
PUBLIC "-//W3C//DTD SVG 1.1//EN"
       "http://www.w3.org/Graphics/SVG/1.1/DTD/svg11.dtd">
<svg version="1.1" xmlns="http://www.w3.org/2000/svg" xmlns:xlink="http://www.w3.org/1999/xlink" width="3300" height="2200">
<![CDATA[<svg width="21" height="12" viewBox="0 0 21 12" fill="none" xmlns="http://www.w3.org/2000/svg">
<path d="M1.5 0C1.30222 0 1.10888 0.0586491 0.94443 0.16853C0.779981 0.278412 0.651809 0.434591 0.576121 0.617317C0.500433 0.800043 0.48063 1.00111 0.519215 1.19509C0.5578 1.38907 0.653041 1.56725 0.792894 1.70711C0.932746 1.84696 1.11093 1.9422 1.30491 1.98079C1.49889 2.01937 1.69996 1.99957 1.88268 1.92388C2.06541 1.84819 2.22159 1.72002 2.33147 1.55557C2.44135 1.39112 2.5 1.19778 2.5 1C2.5 0.734784 2.39464 0.48043 2.20711 0.292893C2.01957 0.105357 1.76522 0 1.5 0ZM5.5 2H19.5C19.7652 2 20.0196 1.89464 20.2071 1.70711C20.3946 1.51957 20.5 1.26522 20.5 1C20.5 0.734784 20.3946 0.48043 20.2071 0.292893C20.0196 0.105357 19.7652 0 19.5 0H5.5C5.23478 0 4.98043 0.105357 4.79289 0.292893C4.60536 0.48043 4.5 0.734784 4.5 1C4.5 1.26522 4.60536 1.51957 4.79289 1.70711C4.98043 1.89464 5.23478 2 5.5 2ZM5.5 5C5.30222 5 5.10888 5.05865 4.94443 5.16853C4.77998 5.27841 4.65181 5.43459 4.57612 5.61732C4.50043 5.80004 4.48063 6.00111 4.51922 6.19509C4.5578 6.38907 4.65304 6.56725 4.79289 6.70711C4.93275 6.84696 5.11093 6.9422 5.30491 6.98079C5.49889 7.01937 5.69996 6.99957 5.88268 6.92388C6.06541 6.84819 6.22159 6.72002 6.33147 6.55557C6.44135 6.39112 6.5 6.19778 6.5 6C6.5 5.73478 6.39464 5.48043 6.20711 5.29289C6.01957 5.10536 5.76522 5 5.5 5ZM9.5 10C9.30222 10 9.10888 10.0586 8.94443 10.1685C8.77998 10.2784 8.65181 10.4346 8.57612 10.6173C8.50043 10.8 8.48063 11.0011 8.51922 11.1951C8.5578 11.3891 8.65304 11.5673 8.79289 11.7071C8.93275 11.847 9.11093 11.9422 9.30491 11.9808C9.49889 12.0194 9.69996 11.9996 9.88268 11.9239C10.0654 11.8482 10.2216 11.72 10.3315 11.5556C10.4414 11.3911 10.5 11.1978 10.5 11C10.5 10.7348 10.3946 10.4804 10.2071 10.2929C10.0196 10.1054 9.76522 10 9.5 10ZM19.5 5H9.5C9.23478 5 8.98043 5.10536 8.79289 5.29289C8.60536 5.48043 8.5 5.73478 8.5 6C8.5 6.26522 8.60536 6.51957 8.79289 6.70711C8.98043 6.89464 9.23478 7 9.5 7H19.5C19.7652 7 20.0196 6.89464 20.2071 6.70711C20.3946 6.51957 20.5 6.26522 20.5 6C20.5 5.73478 20.3946 5.48043 20.2071 5.29289C20.0196 5.10536 19.7652 5 19.5 5ZM19.5 10H13.5C13.2348 10 12.9804 10.1054 12.7929 10.2929C12.6054 10.4804 12.5 10.7348 12.5 11C12.5 11.2652 12.6054 11.5196 12.7929 11.7071C12.9804 11.8946 13.2348 12 13.5 12H19.5C19.7652 12 20.0196 11.8946 20.2071 11.7071C20.3946 11.5196 20.5 11.2652 20.5 11C20.5 10.7348 20.3946 10.4804 20.2071 10.2929C20.0196 10.1054 19.7652 10 19.5 10Z" fill="#C3C3C6"/>
</svg>
]]>
 <g id="Notes">
  <rect height="2200" id="artboard" style="fill:white;opacity:1" width="3300" x="0" y="0"/>
  <line id="" style="fill:none;stroke:black;opacity:1;stroke-width:0.5;" x1="263" x2="3036" y1="292" y2="292"/>
  <text id="reftext1" style="stroke:none;fill:black;font-family:-apple-system,&quot;SF Pro Display&quot;,&quot;SF Pro Text&quot;,Helvetica,sans-serif;font-weight:bold;" transform="matrix(1 0 0 1 263 322)">Weight/Scale Variations</text>
  <text id="reftext2" style="stroke:none;fill:black;font-family:-apple-system,&quot;SF Pro Display&quot;,&quot;SF Pro Text&quot;,Helvetica,sans-serif;text-anchor:middle;" transform="matrix(1 0 0 1 559.711 322)">Ultralight</text>
  <text style="stroke:none;fill:black;font-family:-apple-system,&quot;SF Pro Display&quot;,&quot;SF Pro Text&quot;,Helvetica,sans-serif;text-anchor:middle;" transform="matrix(1 0 0 1 856.422 322)">Thin</text>
  <text style="stroke:none;fill:black;font-family:-apple-system,&quot;SF Pro Display&quot;,&quot;SF Pro Text&quot;,Helvetica,sans-serif;text-anchor:middle;" transform="matrix(1 0 0 1 1153.13 322)">Light</text>
  <text style="stroke:none;fill:black;font-family:-apple-system,&quot;SF Pro Display&quot;,&quot;SF Pro Text&quot;,Helvetica,sans-serif;text-anchor:middle;" transform="matrix(1 0 0 1 1449.84 322)">Regular</text>
  <text style="stroke:none;fill:black;font-family:-apple-system,&quot;SF Pro Display&quot;,&quot;SF Pro Text&quot;,Helvetica,sans-serif;text-anchor:middle;" transform="matrix(1 0 0 1 1746.56 322)">Medium</text>
  <text style="stroke:none;fill:black;font-family:-apple-system,&quot;SF Pro Display&quot;,&quot;SF Pro Text&quot;,Helvetica,sans-serif;text-anchor:middle;" transform="matrix(1 0 0 1 2043.27 322)">Semibold</text>
  <text style="stroke:none;fill:black;font-family:-apple-system,&quot;SF Pro Display&quot;,&quot;SF Pro Text&quot;,Helvetica,sans-serif;text-anchor:middle;" transform="matrix(1 0 0 1 2339.98 322)">Bold</text>
  <text style="stroke:none;fill:black;font-family:-apple-system,&quot;SF Pro Display&quot;,&quot;SF Pro Text&quot;,Helvetica,sans-serif;text-anchor:middle;" transform="matrix(1 0 0 1 2636.69 322)">Heavy</text>
  <text style="stroke:none;fill:black;font-family:-apple-system,&quot;SF Pro Display&quot;,&quot;SF Pro Text&quot;,Helvetica,sans-serif;text-anchor:middle;" transform="matrix(1 0 0 1 2933.4 322)">Black</text>
  <line id="" style="fill:none;stroke:black;opacity:1;stroke-width:0.5;" x1="263" x2="3036" y1="1903" y2="1903"/>
  <g id="" transform="matrix(1 0 0 1 263 1933)">
   <path d="M9.24805 0.830078C13.5547 0.830078 17.1387-2.74414 17.1387-7.05078C17.1387-11.3574 13.5449-14.9316 9.23828-14.9316C4.94141-14.9316 1.36719-11.3574 1.36719-7.05078C1.36719-2.74414 4.95117 0.830078 9.24805 0.830078ZM9.24805-0.654297C5.70312-0.654297 2.87109-3.49609 2.87109-7.05078C2.87109-10.6055 5.69336-13.4473 9.23828-13.4473C12.793-13.4473 15.6348-10.6055 15.6445-7.05078C15.6543-3.49609 12.8027-0.654297 9.24805-0.654297ZM6.39648-6.31836L8.50586-6.31836L8.50586-4.19922C8.50586-3.75977 8.79883-3.45703 9.22852-3.45703C9.67773-3.45703 9.9707-3.75977 9.9707-4.19922L9.9707-6.31836L12.0996-6.31836C12.5391-6.31836 12.8418-6.61133 12.8418-7.04102C12.8418-7.48047 12.5391-7.7832 12.0996-7.7832L9.9707-7.7832L9.9707-9.89258C9.9707-10.3418 9.67773-10.6445 9.22852-10.6445C8.79883-10.6445 8.50586-10.3418 8.50586-9.89258L8.50586-7.7832L6.39648-7.7832C5.94727-7.7832 5.64453-7.48047 5.64453-7.04102C5.64453-6.61133 5.94727-6.31836 6.39648-6.31836Z"/>
  </g>
  <g id="" transform="matrix(1 0 0 1 281.506 1933)">
   <path d="M11.709 2.91016C17.1582 2.91016 21.6699-1.61133 21.6699-7.05078C21.6699-12.5 17.1484-17.0117 11.6992-17.0117C6.25977-17.0117 1.74805-12.5 1.74805-7.05078C1.74805-1.61133 6.26953 2.91016 11.709 2.91016ZM11.709 1.25C7.09961 1.25 3.41797-2.44141 3.41797-7.05078C3.41797-11.6602 7.08984-15.3516 11.6992-15.3516C16.3086-15.3516 20-11.6602 20.0098-7.05078C20.0195-2.44141 16.3184 1.25 11.709 1.25ZM7.98828-6.23047L10.8789-6.23047L10.8789-3.32031C10.8789-2.83203 11.2109-2.5 11.6895-2.5C12.1777-2.5 12.5195-2.83203 12.5195-3.32031L12.5195-6.23047L15.4297-6.23047C15.918-6.23047 16.25-6.5625 16.25-7.04102C16.25-7.5293 15.918-7.87109 15.4297-7.87109L12.5195-7.87109L12.5195-10.7617C12.5195-11.2695 12.1777-11.6016 11.6895-11.6016C11.2109-11.6016 10.8789-11.2598 10.8789-10.7617L10.8789-7.87109L7.98828-7.87109C7.48047-7.87109 7.14844-7.5293 7.14844-7.04102C7.14844-6.5625 7.49023-6.23047 7.98828-6.23047Z"/>
  </g>
  <g id="" transform="matrix(1 0 0 1 304.924 1933)">
   <path d="M14.9707 5.66406C21.9336 5.66406 27.6953-0.0976562 27.6953-7.05078C27.6953-14.0137 21.9238-19.7754 14.9609-19.7754C8.00781-19.7754 2.25586-14.0137 2.25586-7.05078C2.25586-0.0976562 8.01758 5.66406 14.9707 5.66406ZM14.9707 3.84766C8.93555 3.84766 4.08203-1.01562 4.08203-7.05078C4.08203-13.0957 8.92578-17.9492 14.9609-17.9492C21.0059-17.9492 25.8594-13.0957 25.8691-7.05078C25.8789-1.01562 21.0156 3.84766 14.9707 3.84766ZM10.0586-6.14258L14.0625-6.14258L14.0625-2.12891C14.0625-1.5918 14.4336-1.2207 14.9512-1.2207C15.4883-1.2207 15.8594-1.5918 15.8594-2.12891L15.8594-6.14258L19.8828-6.14258C20.4102-6.14258 20.791-6.51367 20.791-7.03125C20.791-7.56836 20.4199-7.94922 19.8828-7.94922L15.8594-7.94922L15.8594-11.9531C15.8594-12.5098 15.4883-12.8809 14.9512-12.8809C14.4336-12.8809 14.0625-12.5 14.0625-11.9531L14.0625-7.94922L10.0586-7.94922C9.50195-7.94922 9.13086-7.56836 9.13086-7.03125C9.13086-6.51367 9.51172-6.14258 10.0586-6.14258Z"/>
  </g>
  <text style="stroke:none;fill:black;font-family:-apple-system,&quot;SF Pro Display&quot;,&quot;SF Pro Text&quot;,Helvetica,sans-serif;font-weight:bold;" transform="matrix(1 0 0 1 263 1953)">Design Variations</text>
  <text style="stroke:none;fill:black;font-family:-apple-system,&quot;SF Pro Display&quot;,&quot;SF Pro Text&quot;,Helvetica,sans-serif;" transform="matrix(1 0 0 1 263 1971)">Symbols are supported in up to nine weights and three scales.</text>
  <text style="stroke:none;fill:black;font-family:-apple-system,&quot;SF Pro Display&quot;,&quot;SF Pro Text&quot;,Helvetica,sans-serif;" transform="matrix(1 0 0 1 263 1989)">For optimal layout with text and other symbols, vertically align</text>
  <text style="stroke:none;fill:black;font-family:-apple-system,&quot;SF Pro Display&quot;,&quot;SF Pro Text&quot;,Helvetica,sans-serif;" transform="matrix(1 0 0 1 263 2007)">symbols with the adjacent text.</text>
  <line id="" style="fill:none;stroke:#00AEEF;stroke-width:0.5;opacity:1.0;" x1="776" x2="776" y1="1919" y2="1933"/>
  <g id="" transform="matrix(1 0 0 1 776 1933)">
   <path d="M3.31055 0.126953C3.82812 0.126953 4.08203-0.0683594 4.26758-0.605469L5.52734-4.0625L11.2891-4.0625L12.5488-0.605469C12.7344-0.0683594 12.9883 0.126953 13.4961 0.126953C14.0137 0.126953 14.3457-0.185547 14.3457-0.673828C14.3457-0.839844 14.3164-0.986328 14.2383-1.20117L9.6582-13.3887C9.43359-13.9941 9.0332-14.2871 8.4082-14.2871C7.80273-14.2871 7.39258-13.9941 7.17773-13.3984L2.59766-1.19141C2.51953-0.976562 2.49023-0.830078 2.49023-0.664062C2.49023-0.175781 2.80273 0.126953 3.31055 0.126953ZM6.00586-5.53711L8.37891-12.1094L8.42773-12.1094L10.8008-5.53711Z"/>
  </g>
  <line id="" style="fill:none;stroke:#00AEEF;stroke-width:0.5;opacity:1.0;" x1="792.836" x2="792.836" y1="1919" y2="1933"/>
  <text style="stroke:none;fill:black;font-family:-apple-system,&quot;SF Pro Display&quot;,&quot;SF Pro Text&quot;,Helvetica,sans-serif;font-weight:bold;" transform="matrix(1 0 0 1 776 1953)">Margins</text>
  <text style="stroke:none;fill:black;font-family:-apple-system,&quot;SF Pro Display&quot;,&quot;SF Pro Text&quot;,Helvetica,sans-serif;" transform="matrix(1 0 0 1 776 1971)">Leading and trailing margins on the left and right side of each symbol</text>
  <text style="stroke:none;fill:black;font-family:-apple-system,&quot;SF Pro Display&quot;,&quot;SF Pro Text&quot;,Helvetica,sans-serif;" transform="matrix(1 0 0 1 776 1989)">can be adjusted by modifying the x-location of the margin guidelines.</text>
  <text style="stroke:none;fill:black;font-family:-apple-system,&quot;SF Pro Display&quot;,&quot;SF Pro Text&quot;,Helvetica,sans-serif;" transform="matrix(1 0 0 1 776 2007)">Modifications are automatically applied proportionally to all</text>
  <text style="stroke:none;fill:black;font-family:-apple-system,&quot;SF Pro Display&quot;,&quot;SF Pro Text&quot;,Helvetica,sans-serif;" transform="matrix(1 0 0 1 776 2025)">scales and weights.</text>
  <g id="" transform="matrix(1 0 0 1 1289 1933)">
   <path d="M2.8418 1.86523L4.54102 3.57422C5.40039 4.44336 6.38672 4.38477 7.31445 3.35938L17.4902-7.85156C17.7539-7.76367 18.0273-7.7832 18.3398-7.8418L19.4043-8.03711L20.0684-7.36328L20.0293-6.80664C19.9902-6.30859 20.1172-5.92773 20.6055-5.44922L21.3672-4.70703C21.8457-4.22852 22.4609-4.19922 22.9297-4.66797L25.8398-7.58789C26.3086-8.05664 26.2891-8.65234 25.8105-9.13086L25.0391-9.89258C24.5605-10.3711 24.1895-10.5273 23.7109-10.4883L23.1348-10.4395L22.4902-11.0742L22.7344-12.1973C22.8613-12.7637 22.7051-13.2031 22.1191-13.7891L19.9219-15.9766C16.582-19.2969 12.1484-19.2188 9.25781-16.3281C8.83789-15.918 8.80859-15.3418 9.04297-14.9512C9.27734-14.5898 9.73633-14.3555 10.3809-14.5215C11.8457-14.8633 13.3691-14.9219 14.7949-13.9844L14.209-12.5293C14.0137-12.0508 13.9844-11.6504 14.1113-11.2891L3.04688-0.898438C2.06055 0.0195312 1.98242 0.996094 2.8418 1.86523ZM10.752-15.957C13.1836-17.7344 16.4746-17.4316 18.7012-15.2051L21.1328-12.793C21.3672-12.5586 21.4062-12.373 21.3379-12.0312L21.0156-10.5469L22.5195-9.0625L23.5059-9.12109C23.7598-9.13086 23.8379-9.11133 24.0332-8.91602L24.6094-8.33984L22.168-5.89844L21.5918-6.47461C21.3965-6.66992 21.3672-6.74805 21.377-7.01172L21.4453-7.98828L19.9512-9.47266L18.4277-9.21875C18.1055-9.15039 17.959-9.17969 17.7148-9.41406L15.7129-11.416C15.459-11.6504 15.4297-11.8164 15.5859-12.1875L16.4648-14.2773C14.9023-15.7324 12.8711-16.3574 10.8398-15.7617C10.6836-15.7227 10.625-15.8496 10.752-15.957ZM5.27344 2.30469L4.10156 1.14258C3.63281 0.683594 3.74023 0.341797 4.14062-0.0195312L14.9512-10.1953L16.416-8.71094L6.42578 2.27539C6.07422 2.67578 5.74219 2.77344 5.27344 2.30469Z"/>
  </g>
  <text style="stroke:none;fill:black;font-family:-apple-system,&quot;SF Pro Display&quot;,&quot;SF Pro Text&quot;,Helvetica,sans-serif;font-weight:bold;" transform="matrix(1 0 0 1 1289 1953)">Exporting</text>
  <text style="stroke:none;fill:black;font-family:-apple-system,&quot;SF Pro Display&quot;,&quot;SF Pro Text&quot;,Helvetica,sans-serif;" transform="matrix(1 0 0 1 1289 1971)">Symbols should be outlined when exporting to ensure the</text>
  <text style="stroke:none;fill:black;font-family:-apple-system,&quot;SF Pro Display&quot;,&quot;SF Pro Text&quot;,Helvetica,sans-serif;" transform="matrix(1 0 0 1 1289 1989)">design is preserved when submitting to Xcode.</text>
  <text id="template-version" style="stroke:none;fill:black;font-family:-apple-system,&quot;SF Pro Display&quot;,&quot;SF Pro Text&quot;,Helvetica,sans-serif;text-anchor:end;" transform="matrix(1 0 0 1 3036 1933)">Template v.2.0</text>
  <text style="stroke:none;fill:black;font-family:-apple-system,&quot;SF Pro Display&quot;,&quot;SF Pro Text&quot;,Helvetica,sans-serif;text-anchor:end;" transform="matrix(1 0 0 1 3036 1951)">Requires Xcode 12 or greater</text>
  <text style="stroke:none;fill:black;font-family:-apple-system,&quot;SF Pro Display&quot;,&quot;SF Pro Text&quot;,Helvetica,sans-serif;" transform="matrix(1 0 0 1 263 726)">Small</text>
  <text style="stroke:none;fill:black;font-family:-apple-system,&quot;SF Pro Display&quot;,&quot;SF Pro Text&quot;,Helvetica,sans-serif;" transform="matrix(1 0 0 1 263 1156)">Medium</text>
  <text style="stroke:none;fill:black;font-family:-apple-system,&quot;SF Pro Display&quot;,&quot;SF Pro Text&quot;,Helvetica,sans-serif;" transform="matrix(1 0 0 1 263 1586)">Large</text>
 </g>
 <g id="Guides">
  <g id="H-reference" style="fill:#27AAE1;stroke:none;" transform="matrix(1 0 0 1 339 696)">
   <path d="M0.976562 0L3.66211 0L12.9883-24.4629L45.752-24.4629L55.127 0L57.7637 0L30.6152-70.459L28.125-70.459ZM29.3457-67.1387L29.4434-67.1387L44.873-26.709L13.8672-26.709Z"/>
  </g>
  <line id="Baseline-S" style="fill:none;stroke:#27AAE1;opacity:1;stroke-width:0.5;" x1="263" x2="3036" y1="696" y2="696"/>
  <line id="Capline-S" style="fill:none;stroke:#27AAE1;opacity:1;stroke-width:0.5;" x1="263" x2="3036" y1="625.541" y2="625.541"/>
  <g id="H-reference" style="fill:#27AAE1;stroke:none;" transform="matrix(1 0 0 1 339 1126)">
   <path d="M0.976562 0L3.66211 0L12.9883-24.4629L45.752-24.4629L55.127 0L57.7637 0L30.6152-70.459L28.125-70.459ZM29.3457-67.1387L29.4434-67.1387L44.873-26.709L13.8672-26.709Z"/>
  </g>
  <line id="Baseline-M" style="fill:none;stroke:#27AAE1;opacity:1;stroke-width:0.5;" x1="263" x2="3036" y1="1126" y2="1126"/>
  <line id="Capline-M" style="fill:none;stroke:#27AAE1;opacity:1;stroke-width:0.5;" x1="263" x2="3036" y1="1055.54" y2="1055.54"/>
  <g id="H-reference" style="fill:#27AAE1;stroke:none;" transform="matrix(1 0 0 1 339 1556)">
   <path d="M0.976562 0L3.66211 0L12.9883-24.4629L45.752-24.4629L55.127 0L57.7637 0L30.6152-70.459L28.125-70.459ZM29.3457-67.1387L29.4434-67.1387L44.873-26.709L13.8672-26.709Z"/>
  </g>
  <line id="Baseline-L" style="fill:none;stroke:#27AAE1;opacity:1;stroke-width:0.5;" x1="263" x2="3036" y1="1556" y2="1556"/>
  <line id="Capline-L" style="fill:none;stroke:#27AAE1;opacity:1;stroke-width:0.5;" x1="263" x2="3036" y1="1485.54" y2="1485.54"/>
  <line id="left-margin" x1="1395.6427807617188" x2="1395.6427807617188" y1="1030.79" y2="1150.12" style="fill:none;stroke:#00AEEF;stroke-width:0.5;opacity:1.0;"/>
  <line id="right-margin" x1="1506.617219238281" x2="1506.617219238281" y1="1030.79" y2="1150.12" style="fill:none;stroke:#00AEEF;stroke-width:0.5;opacity:1.0;"/>
 </g>
 <g id="Symbols">
  <g id="Black-L" transform="matrix(1.0,0.0,0.0,1.0,2862.3784719016335,1479.4548606178978)">  <path stroke-opacity="1" fill-opacity="1" stroke="none" stroke-width="1px" fill-rule="nonzero" stroke-dasharray="none" fill="#000000" stroke-miterlimit="4" stroke-linejoin="miter" stroke-linecap="butt" d="M10.329,0C8.967,0,7.636,0.404,6.503,1.16C5.371,1.917,4.488,2.993,3.967,4.251C3.446,5.509,3.31,6.894,3.575,8.229C3.841,9.565,4.497,10.792,5.46,11.755C6.423,12.718,7.65,13.374,8.985,13.639C10.321,13.905,11.706,13.769,12.964,13.248C14.222,12.726,15.298,11.844,16.054,10.711C16.811,9.579,17.215,8.248,17.215,6.886C17.215,5.06,16.489,3.308,15.198,2.017C13.906,0.725,12.155,0,10.329,0ZM37.872,13.772L134.274,13.772C136.1,13.772,137.852,13.046,139.143,11.755C140.434,10.464,141.16,8.712,141.16,6.886C141.16,5.06,140.434,3.308,139.143,2.017C137.852,0.725,136.1,0,134.274,0L37.872,0C36.046,0,34.295,0.725,33.003,2.017C31.712,3.308,30.986,5.06,30.986,6.886C30.986,8.712,31.712,10.464,33.003,11.755C34.295,13.046,36.046,13.772,37.872,13.772ZM37.872,34.429C36.51,34.429,35.179,34.833,34.047,35.59C32.914,36.346,32.032,37.422,31.511,38.68C30.989,39.938,30.853,41.323,31.119,42.659C31.384,43.994,32.04,45.221,33.003,46.184C33.966,47.147,35.193,47.803,36.529,48.069C37.865,48.334,39.249,48.198,40.507,47.677C41.766,47.156,42.841,46.273,43.598,45.141C44.354,44.008,44.758,42.677,44.758,41.315C44.758,39.489,44.033,37.737,42.741,36.446C41.45,35.155,39.698,34.429,37.872,34.429ZM65.416,68.859C64.054,68.859,62.722,69.262,61.59,70.019C60.458,70.776,59.575,71.851,59.054,73.109C58.533,74.367,58.396,75.752,58.662,77.088C58.928,78.424,59.584,79.651,60.547,80.613C61.51,81.577,62.737,82.232,64.072,82.498C65.408,82.764,66.793,82.628,68.051,82.106C69.309,81.585,70.385,80.702,71.141,79.57C71.898,78.438,72.302,77.106,72.302,75.744C72.302,73.918,71.576,72.167,70.285,70.875C68.994,69.584,67.242,68.859,65.416,68.859ZM134.274,34.429L65.416,34.429C63.589,34.429,61.838,35.155,60.547,36.446C59.255,37.737,58.53,39.489,58.53,41.315C58.53,43.141,59.255,44.893,60.547,46.184C61.838,47.476,63.589,48.201,65.416,48.201L134.274,48.201C136.1,48.201,137.852,47.476,139.143,46.184C140.434,44.893,141.16,43.141,141.16,41.315C141.16,39.489,140.434,37.737,139.143,36.446C137.852,35.155,136.1,34.429,134.274,34.429ZM134.274,68.859L92.959,68.859C91.133,68.859,89.381,69.584,88.09,70.875C86.799,72.167,86.073,73.918,86.073,75.744C86.073,77.571,86.799,79.322,88.09,80.613C89.381,81.905,91.133,82.63,92.959,82.63L134.274,82.63C136.1,82.63,137.852,81.905,139.143,80.613C140.434,79.322,141.16,77.571,141.16,75.744C141.16,73.918,140.434,72.167,139.143,70.875C137.852,69.584,136.1,68.859,134.274,68.859ZM134.274,68.859"/>
</g>
  <g id="Heavy-L" transform="matrix(1.0,0.0,0.0,1.0,2565.6684719016334,1479.4548606178978)">  <path stroke="none" stroke-dasharray="none" stroke-width="1px" stroke-miterlimit="4" fill="#000000" stroke-linejoin="miter" fill-rule="nonzero" stroke-opacity="1" stroke-linecap="butt" fill-opacity="1" d="M10.329,0C8.967,0,7.636,0.404,6.503,1.16C5.371,1.917,4.488,2.993,3.967,4.251C3.446,5.509,3.31,6.894,3.575,8.229C3.841,9.565,4.497,10.792,5.46,11.755C6.423,12.718,7.65,13.374,8.985,13.639C10.321,13.905,11.706,13.769,12.964,13.248C14.222,12.726,15.298,11.844,16.054,10.711C16.811,9.579,17.215,8.248,17.215,6.886C17.215,5.06,16.489,3.308,15.198,2.017C13.906,0.725,12.155,0,10.329,0ZM37.872,13.772L134.274,13.772C136.1,13.772,137.852,13.046,139.143,11.755C140.434,10.464,141.16,8.712,141.16,6.886C141.16,5.06,140.434,3.308,139.143,2.017C137.852,0.725,136.1,0,134.274,0L37.872,0C36.046,0,34.295,0.725,33.003,2.017C31.712,3.308,30.986,5.06,30.986,6.886C30.986,8.712,31.712,10.464,33.003,11.755C34.295,13.046,36.046,13.772,37.872,13.772ZM37.872,34.429C36.51,34.429,35.179,34.833,34.047,35.59C32.914,36.346,32.032,37.422,31.511,38.68C30.989,39.938,30.853,41.323,31.119,42.659C31.384,43.994,32.04,45.221,33.003,46.184C33.966,47.147,35.193,47.803,36.529,48.069C37.865,48.334,39.249,48.198,40.507,47.677C41.766,47.156,42.841,46.273,43.598,45.141C44.354,44.008,44.758,42.677,44.758,41.315C44.758,39.489,44.033,37.737,42.741,36.446C41.45,35.155,39.698,34.429,37.872,34.429ZM65.416,68.859C64.054,68.859,62.722,69.262,61.59,70.019C60.458,70.776,59.575,71.851,59.054,73.109C58.533,74.367,58.396,75.752,58.662,77.088C58.928,78.424,59.584,79.651,60.547,80.613C61.51,81.577,62.737,82.232,64.072,82.498C65.408,82.764,66.793,82.628,68.051,82.106C69.309,81.585,70.385,80.702,71.141,79.57C71.898,78.438,72.302,77.106,72.302,75.744C72.302,73.918,71.576,72.167,70.285,70.875C68.994,69.584,67.242,68.859,65.416,68.859ZM134.274,34.429L65.416,34.429C63.589,34.429,61.838,35.155,60.547,36.446C59.255,37.737,58.53,39.489,58.53,41.315C58.53,43.141,59.255,44.893,60.547,46.184C61.838,47.476,63.589,48.201,65.416,48.201L134.274,48.201C136.1,48.201,137.852,47.476,139.143,46.184C140.434,44.893,141.16,43.141,141.16,41.315C141.16,39.489,140.434,37.737,139.143,36.446C137.852,35.155,136.1,34.429,134.274,34.429ZM134.274,68.859L92.959,68.859C91.133,68.859,89.381,69.584,88.09,70.875C86.799,72.167,86.073,73.918,86.073,75.744C86.073,77.571,86.799,79.322,88.09,80.613C89.381,81.905,91.133,82.63,92.959,82.63L134.274,82.63C136.1,82.63,137.852,81.905,139.143,80.613C140.434,79.322,141.16,77.571,141.16,75.744C141.16,73.918,140.434,72.167,139.143,70.875C137.852,69.584,136.1,68.859,134.274,68.859ZM134.274,68.859"/>
</g>
  <g id="Bold-L" transform="matrix(1.0,0.0,0.0,1.0,2268.9584719016334,1479.4548606178978)">  <path stroke-dasharray="none" stroke-opacity="1" stroke-linejoin="miter" stroke="none" stroke-miterlimit="4" fill="#000000" stroke-width="1px" fill-rule="nonzero" fill-opacity="1" stroke-linecap="butt" d="M10.329,0C8.967,0,7.636,0.404,6.503,1.16C5.371,1.917,4.488,2.993,3.967,4.251C3.446,5.509,3.31,6.894,3.575,8.229C3.841,9.565,4.497,10.792,5.46,11.755C6.423,12.718,7.65,13.374,8.985,13.639C10.321,13.905,11.706,13.769,12.964,13.248C14.222,12.726,15.298,11.844,16.054,10.711C16.811,9.579,17.215,8.248,17.215,6.886C17.215,5.06,16.489,3.308,15.198,2.017C13.906,0.725,12.155,0,10.329,0ZM37.872,13.772L134.274,13.772C136.1,13.772,137.852,13.046,139.143,11.755C140.434,10.464,141.16,8.712,141.16,6.886C141.16,5.06,140.434,3.308,139.143,2.017C137.852,0.725,136.1,0,134.274,0L37.872,0C36.046,0,34.295,0.725,33.003,2.017C31.712,3.308,30.986,5.06,30.986,6.886C30.986,8.712,31.712,10.464,33.003,11.755C34.295,13.046,36.046,13.772,37.872,13.772ZM37.872,34.429C36.51,34.429,35.179,34.833,34.047,35.59C32.914,36.346,32.032,37.422,31.511,38.68C30.989,39.938,30.853,41.323,31.119,42.659C31.384,43.994,32.04,45.221,33.003,46.184C33.966,47.147,35.193,47.803,36.529,48.069C37.865,48.334,39.249,48.198,40.507,47.677C41.766,47.156,42.841,46.273,43.598,45.141C44.354,44.008,44.758,42.677,44.758,41.315C44.758,39.489,44.033,37.737,42.741,36.446C41.45,35.155,39.698,34.429,37.872,34.429ZM65.416,68.859C64.054,68.859,62.722,69.262,61.59,70.019C60.458,70.776,59.575,71.851,59.054,73.109C58.533,74.367,58.396,75.752,58.662,77.088C58.928,78.424,59.584,79.651,60.547,80.613C61.51,81.577,62.737,82.232,64.072,82.498C65.408,82.764,66.793,82.628,68.051,82.106C69.309,81.585,70.385,80.702,71.141,79.57C71.898,78.438,72.302,77.106,72.302,75.744C72.302,73.918,71.576,72.167,70.285,70.875C68.994,69.584,67.242,68.859,65.416,68.859ZM134.274,34.429L65.416,34.429C63.589,34.429,61.838,35.155,60.547,36.446C59.255,37.737,58.53,39.489,58.53,41.315C58.53,43.141,59.255,44.893,60.547,46.184C61.838,47.476,63.589,48.201,65.416,48.201L134.274,48.201C136.1,48.201,137.852,47.476,139.143,46.184C140.434,44.893,141.16,43.141,141.16,41.315C141.16,39.489,140.434,37.737,139.143,36.446C137.852,35.155,136.1,34.429,134.274,34.429ZM134.274,68.859L92.959,68.859C91.133,68.859,89.381,69.584,88.09,70.875C86.799,72.167,86.073,73.918,86.073,75.744C86.073,77.571,86.799,79.322,88.09,80.613C89.381,81.905,91.133,82.63,92.959,82.63L134.274,82.63C136.1,82.63,137.852,81.905,139.143,80.613C140.434,79.322,141.16,77.571,141.16,75.744C141.16,73.918,140.434,72.167,139.143,70.875C137.852,69.584,136.1,68.859,134.274,68.859ZM134.274,68.859"/>
</g>
  <g id="Semibold-L" transform="matrix(1.0,0.0,0.0,1.0,1972.2484719016334,1479.4548606178978)">  <path stroke-dasharray="none" stroke-linejoin="miter" fill-opacity="1" fill-rule="nonzero" stroke="none" stroke-width="1px" stroke-linecap="butt" stroke-miterlimit="4" stroke-opacity="1" fill="#000000" d="M10.329,0C8.967,0,7.636,0.404,6.503,1.16C5.371,1.917,4.488,2.993,3.967,4.251C3.446,5.509,3.31,6.894,3.575,8.229C3.841,9.565,4.497,10.792,5.46,11.755C6.423,12.718,7.65,13.374,8.985,13.639C10.321,13.905,11.706,13.769,12.964,13.248C14.222,12.726,15.298,11.844,16.054,10.711C16.811,9.579,17.215,8.248,17.215,6.886C17.215,5.06,16.489,3.308,15.198,2.017C13.906,0.725,12.155,0,10.329,0ZM37.872,13.772L134.274,13.772C136.1,13.772,137.852,13.046,139.143,11.755C140.434,10.464,141.16,8.712,141.16,6.886C141.16,5.06,140.434,3.308,139.143,2.017C137.852,0.725,136.1,0,134.274,0L37.872,0C36.046,0,34.295,0.725,33.003,2.017C31.712,3.308,30.986,5.06,30.986,6.886C30.986,8.712,31.712,10.464,33.003,11.755C34.295,13.046,36.046,13.772,37.872,13.772ZM37.872,34.429C36.51,34.429,35.179,34.833,34.047,35.59C32.914,36.346,32.032,37.422,31.511,38.68C30.989,39.938,30.853,41.323,31.119,42.659C31.384,43.994,32.04,45.221,33.003,46.184C33.966,47.147,35.193,47.803,36.529,48.069C37.865,48.334,39.249,48.198,40.507,47.677C41.766,47.156,42.841,46.273,43.598,45.141C44.354,44.008,44.758,42.677,44.758,41.315C44.758,39.489,44.033,37.737,42.741,36.446C41.45,35.155,39.698,34.429,37.872,34.429ZM65.416,68.859C64.054,68.859,62.722,69.262,61.59,70.019C60.458,70.776,59.575,71.851,59.054,73.109C58.533,74.367,58.396,75.752,58.662,77.088C58.928,78.424,59.584,79.651,60.547,80.613C61.51,81.577,62.737,82.232,64.072,82.498C65.408,82.764,66.793,82.628,68.051,82.106C69.309,81.585,70.385,80.702,71.141,79.57C71.898,78.438,72.302,77.106,72.302,75.744C72.302,73.918,71.576,72.167,70.285,70.875C68.994,69.584,67.242,68.859,65.416,68.859ZM134.274,34.429L65.416,34.429C63.589,34.429,61.838,35.155,60.547,36.446C59.255,37.737,58.53,39.489,58.53,41.315C58.53,43.141,59.255,44.893,60.547,46.184C61.838,47.476,63.589,48.201,65.416,48.201L134.274,48.201C136.1,48.201,137.852,47.476,139.143,46.184C140.434,44.893,141.16,43.141,141.16,41.315C141.16,39.489,140.434,37.737,139.143,36.446C137.852,35.155,136.1,34.429,134.274,34.429ZM134.274,68.859L92.959,68.859C91.133,68.859,89.381,69.584,88.09,70.875C86.799,72.167,86.073,73.918,86.073,75.744C86.073,77.571,86.799,79.322,88.09,80.613C89.381,81.905,91.133,82.63,92.959,82.63L134.274,82.63C136.1,82.63,137.852,81.905,139.143,80.613C140.434,79.322,141.16,77.571,141.16,75.744C141.16,73.918,140.434,72.167,139.143,70.875C137.852,69.584,136.1,68.859,134.274,68.859ZM134.274,68.859"/>
</g>
  <g id="Medium-L" transform="matrix(1.0,0.0,0.0,1.0,1675.5384719016333,1479.4548606178978)">  <path stroke="none" stroke-opacity="1" stroke-miterlimit="4" fill-rule="nonzero" stroke-dasharray="none" fill-opacity="1" stroke-linecap="butt" fill="#000000" stroke-width="1px" stroke-linejoin="miter" d="M10.329,0C8.967,0,7.636,0.404,6.503,1.16C5.371,1.917,4.488,2.993,3.967,4.251C3.446,5.509,3.31,6.894,3.575,8.229C3.841,9.565,4.497,10.792,5.46,11.755C6.423,12.718,7.65,13.374,8.985,13.639C10.321,13.905,11.706,13.769,12.964,13.248C14.222,12.726,15.298,11.844,16.054,10.711C16.811,9.579,17.215,8.248,17.215,6.886C17.215,5.06,16.489,3.308,15.198,2.017C13.906,0.725,12.155,0,10.329,0ZM37.872,13.772L134.274,13.772C136.1,13.772,137.852,13.046,139.143,11.755C140.434,10.464,141.16,8.712,141.16,6.886C141.16,5.06,140.434,3.308,139.143,2.017C137.852,0.725,136.1,0,134.274,0L37.872,0C36.046,0,34.295,0.725,33.003,2.017C31.712,3.308,30.986,5.06,30.986,6.886C30.986,8.712,31.712,10.464,33.003,11.755C34.295,13.046,36.046,13.772,37.872,13.772ZM37.872,34.429C36.51,34.429,35.179,34.833,34.047,35.59C32.914,36.346,32.032,37.422,31.511,38.68C30.989,39.938,30.853,41.323,31.119,42.659C31.384,43.994,32.04,45.221,33.003,46.184C33.966,47.147,35.193,47.803,36.529,48.069C37.865,48.334,39.249,48.198,40.507,47.677C41.766,47.156,42.841,46.273,43.598,45.141C44.354,44.008,44.758,42.677,44.758,41.315C44.758,39.489,44.033,37.737,42.741,36.446C41.45,35.155,39.698,34.429,37.872,34.429ZM65.416,68.859C64.054,68.859,62.722,69.262,61.59,70.019C60.458,70.776,59.575,71.851,59.054,73.109C58.533,74.367,58.396,75.752,58.662,77.088C58.928,78.424,59.584,79.651,60.547,80.613C61.51,81.577,62.737,82.232,64.072,82.498C65.408,82.764,66.793,82.628,68.051,82.106C69.309,81.585,70.385,80.702,71.141,79.57C71.898,78.438,72.302,77.106,72.302,75.744C72.302,73.918,71.576,72.167,70.285,70.875C68.994,69.584,67.242,68.859,65.416,68.859ZM134.274,34.429L65.416,34.429C63.589,34.429,61.838,35.155,60.547,36.446C59.255,37.737,58.53,39.489,58.53,41.315C58.53,43.141,59.255,44.893,60.547,46.184C61.838,47.476,63.589,48.201,65.416,48.201L134.274,48.201C136.1,48.201,137.852,47.476,139.143,46.184C140.434,44.893,141.16,43.141,141.16,41.315C141.16,39.489,140.434,37.737,139.143,36.446C137.852,35.155,136.1,34.429,134.274,34.429ZM134.274,68.859L92.959,68.859C91.133,68.859,89.381,69.584,88.09,70.875C86.799,72.167,86.073,73.918,86.073,75.744C86.073,77.571,86.799,79.322,88.09,80.613C89.381,81.905,91.133,82.63,92.959,82.63L134.274,82.63C136.1,82.63,137.852,81.905,139.143,80.613C140.434,79.322,141.16,77.571,141.16,75.744C141.16,73.918,140.434,72.167,139.143,70.875C137.852,69.584,136.1,68.859,134.274,68.859ZM134.274,68.859"/>
</g>
  <g id="Regular-L" transform="matrix(1.0,0.0,0.0,1.0,1378.8284719016333,1479.4548606178978)">  <path stroke-linecap="butt" stroke-opacity="1" fill-opacity="1" fill="#000000" stroke-width="1px" fill-rule="nonzero" stroke="none" stroke-miterlimit="4" stroke-linejoin="miter" stroke-dasharray="none" d="M10.329,0C8.967,0,7.636,0.404,6.503,1.16C5.371,1.917,4.488,2.993,3.967,4.251C3.446,5.509,3.31,6.894,3.575,8.229C3.841,9.565,4.497,10.792,5.46,11.755C6.423,12.718,7.65,13.374,8.985,13.639C10.321,13.905,11.706,13.769,12.964,13.248C14.222,12.726,15.298,11.844,16.054,10.711C16.811,9.579,17.215,8.248,17.215,6.886C17.215,5.06,16.489,3.308,15.198,2.017C13.906,0.725,12.155,0,10.329,0ZM37.872,13.772L134.274,13.772C136.1,13.772,137.852,13.046,139.143,11.755C140.434,10.464,141.16,8.712,141.16,6.886C141.16,5.06,140.434,3.308,139.143,2.017C137.852,0.725,136.1,0,134.274,0L37.872,0C36.046,0,34.295,0.725,33.003,2.017C31.712,3.308,30.986,5.06,30.986,6.886C30.986,8.712,31.712,10.464,33.003,11.755C34.295,13.046,36.046,13.772,37.872,13.772ZM37.872,34.429C36.51,34.429,35.179,34.833,34.047,35.59C32.914,36.346,32.032,37.422,31.511,38.68C30.989,39.938,30.853,41.323,31.119,42.659C31.384,43.994,32.04,45.221,33.003,46.184C33.966,47.147,35.193,47.803,36.529,48.069C37.865,48.334,39.249,48.198,40.507,47.677C41.766,47.156,42.841,46.273,43.598,45.141C44.354,44.008,44.758,42.677,44.758,41.315C44.758,39.489,44.033,37.737,42.741,36.446C41.45,35.155,39.698,34.429,37.872,34.429ZM65.416,68.859C64.054,68.859,62.722,69.262,61.59,70.019C60.458,70.776,59.575,71.851,59.054,73.109C58.533,74.367,58.396,75.752,58.662,77.088C58.928,78.424,59.584,79.651,60.547,80.613C61.51,81.577,62.737,82.232,64.072,82.498C65.408,82.764,66.793,82.628,68.051,82.106C69.309,81.585,70.385,80.702,71.141,79.57C71.898,78.438,72.302,77.106,72.302,75.744C72.302,73.918,71.576,72.167,70.285,70.875C68.994,69.584,67.242,68.859,65.416,68.859ZM134.274,34.429L65.416,34.429C63.589,34.429,61.838,35.155,60.547,36.446C59.255,37.737,58.53,39.489,58.53,41.315C58.53,43.141,59.255,44.893,60.547,46.184C61.838,47.476,63.589,48.201,65.416,48.201L134.274,48.201C136.1,48.201,137.852,47.476,139.143,46.184C140.434,44.893,141.16,43.141,141.16,41.315C141.16,39.489,140.434,37.737,139.143,36.446C137.852,35.155,136.1,34.429,134.274,34.429ZM134.274,68.859L92.959,68.859C91.133,68.859,89.381,69.584,88.09,70.875C86.799,72.167,86.073,73.918,86.073,75.744C86.073,77.571,86.799,79.322,88.09,80.613C89.381,81.905,91.133,82.63,92.959,82.63L134.274,82.63C136.1,82.63,137.852,81.905,139.143,80.613C140.434,79.322,141.16,77.571,141.16,75.744C141.16,73.918,140.434,72.167,139.143,70.875C137.852,69.584,136.1,68.859,134.274,68.859ZM134.274,68.859"/>
</g>
  <g id="Light-L" transform="matrix(1.0,0.0,0.0,1.0,1082.1184719016335,1479.4548606178978)">  <path stroke-width="1px" stroke-linejoin="miter" fill-opacity="1" stroke-opacity="1" stroke-miterlimit="4" stroke="none" stroke-dasharray="none" stroke-linecap="butt" fill="#000000" fill-rule="nonzero" d="M10.329,0C8.967,0,7.636,0.404,6.503,1.16C5.371,1.917,4.488,2.993,3.967,4.251C3.446,5.509,3.31,6.894,3.575,8.229C3.841,9.565,4.497,10.792,5.46,11.755C6.423,12.718,7.65,13.374,8.985,13.639C10.321,13.905,11.706,13.769,12.964,13.248C14.222,12.726,15.298,11.844,16.054,10.711C16.811,9.579,17.215,8.248,17.215,6.886C17.215,5.06,16.489,3.308,15.198,2.017C13.906,0.725,12.155,0,10.329,0ZM37.872,13.772L134.274,13.772C136.1,13.772,137.852,13.046,139.143,11.755C140.434,10.464,141.16,8.712,141.16,6.886C141.16,5.06,140.434,3.308,139.143,2.017C137.852,0.725,136.1,0,134.274,0L37.872,0C36.046,0,34.295,0.725,33.003,2.017C31.712,3.308,30.986,5.06,30.986,6.886C30.986,8.712,31.712,10.464,33.003,11.755C34.295,13.046,36.046,13.772,37.872,13.772ZM37.872,34.429C36.51,34.429,35.179,34.833,34.047,35.59C32.914,36.346,32.032,37.422,31.511,38.68C30.989,39.938,30.853,41.323,31.119,42.659C31.384,43.994,32.04,45.221,33.003,46.184C33.966,47.147,35.193,47.803,36.529,48.069C37.865,48.334,39.249,48.198,40.507,47.677C41.766,47.156,42.841,46.273,43.598,45.141C44.354,44.008,44.758,42.677,44.758,41.315C44.758,39.489,44.033,37.737,42.741,36.446C41.45,35.155,39.698,34.429,37.872,34.429ZM65.416,68.859C64.054,68.859,62.722,69.262,61.59,70.019C60.458,70.776,59.575,71.851,59.054,73.109C58.533,74.367,58.396,75.752,58.662,77.088C58.928,78.424,59.584,79.651,60.547,80.613C61.51,81.577,62.737,82.232,64.072,82.498C65.408,82.764,66.793,82.628,68.051,82.106C69.309,81.585,70.385,80.702,71.141,79.57C71.898,78.438,72.302,77.106,72.302,75.744C72.302,73.918,71.576,72.167,70.285,70.875C68.994,69.584,67.242,68.859,65.416,68.859ZM134.274,34.429L65.416,34.429C63.589,34.429,61.838,35.155,60.547,36.446C59.255,37.737,58.53,39.489,58.53,41.315C58.53,43.141,59.255,44.893,60.547,46.184C61.838,47.476,63.589,48.201,65.416,48.201L134.274,48.201C136.1,48.201,137.852,47.476,139.143,46.184C140.434,44.893,141.16,43.141,141.16,41.315C141.16,39.489,140.434,37.737,139.143,36.446C137.852,35.155,136.1,34.429,134.274,34.429ZM134.274,68.859L92.959,68.859C91.133,68.859,89.381,69.584,88.09,70.875C86.799,72.167,86.073,73.918,86.073,75.744C86.073,77.571,86.799,79.322,88.09,80.613C89.381,81.905,91.133,82.63,92.959,82.63L134.274,82.63C136.1,82.63,137.852,81.905,139.143,80.613C140.434,79.322,141.16,77.571,141.16,75.744C141.16,73.918,140.434,72.167,139.143,70.875C137.852,69.584,136.1,68.859,134.274,68.859ZM134.274,68.859"/>
</g>
  <g id="Thin-L" transform="matrix(1.0,0.0,0.0,1.0,785.4084719016336,1479.4548606178978)">  <path stroke-width="1px" stroke="none" stroke-linecap="butt" stroke-miterlimit="4" stroke-linejoin="miter" stroke-opacity="1" fill-opacity="1" stroke-dasharray="none" fill="#000000" fill-rule="nonzero" d="M10.329,0C8.967,0,7.636,0.404,6.503,1.16C5.371,1.917,4.488,2.993,3.967,4.251C3.446,5.509,3.31,6.894,3.575,8.229C3.841,9.565,4.497,10.792,5.46,11.755C6.423,12.718,7.65,13.374,8.985,13.639C10.321,13.905,11.706,13.769,12.964,13.248C14.222,12.726,15.298,11.844,16.054,10.711C16.811,9.579,17.215,8.248,17.215,6.886C17.215,5.06,16.489,3.308,15.198,2.017C13.906,0.725,12.155,0,10.329,0ZM37.872,13.772L134.274,13.772C136.1,13.772,137.852,13.046,139.143,11.755C140.434,10.464,141.16,8.712,141.16,6.886C141.16,5.06,140.434,3.308,139.143,2.017C137.852,0.725,136.1,0,134.274,0L37.872,0C36.046,0,34.295,0.725,33.003,2.017C31.712,3.308,30.986,5.06,30.986,6.886C30.986,8.712,31.712,10.464,33.003,11.755C34.295,13.046,36.046,13.772,37.872,13.772ZM37.872,34.429C36.51,34.429,35.179,34.833,34.047,35.59C32.914,36.346,32.032,37.422,31.511,38.68C30.989,39.938,30.853,41.323,31.119,42.659C31.384,43.994,32.04,45.221,33.003,46.184C33.966,47.147,35.193,47.803,36.529,48.069C37.865,48.334,39.249,48.198,40.507,47.677C41.766,47.156,42.841,46.273,43.598,45.141C44.354,44.008,44.758,42.677,44.758,41.315C44.758,39.489,44.033,37.737,42.741,36.446C41.45,35.155,39.698,34.429,37.872,34.429ZM65.416,68.859C64.054,68.859,62.722,69.262,61.59,70.019C60.458,70.776,59.575,71.851,59.054,73.109C58.533,74.367,58.396,75.752,58.662,77.088C58.928,78.424,59.584,79.651,60.547,80.613C61.51,81.577,62.737,82.232,64.072,82.498C65.408,82.764,66.793,82.628,68.051,82.106C69.309,81.585,70.385,80.702,71.141,79.57C71.898,78.438,72.302,77.106,72.302,75.744C72.302,73.918,71.576,72.167,70.285,70.875C68.994,69.584,67.242,68.859,65.416,68.859ZM134.274,34.429L65.416,34.429C63.589,34.429,61.838,35.155,60.547,36.446C59.255,37.737,58.53,39.489,58.53,41.315C58.53,43.141,59.255,44.893,60.547,46.184C61.838,47.476,63.589,48.201,65.416,48.201L134.274,48.201C136.1,48.201,137.852,47.476,139.143,46.184C140.434,44.893,141.16,43.141,141.16,41.315C141.16,39.489,140.434,37.737,139.143,36.446C137.852,35.155,136.1,34.429,134.274,34.429ZM134.274,68.859L92.959,68.859C91.133,68.859,89.381,69.584,88.09,70.875C86.799,72.167,86.073,73.918,86.073,75.744C86.073,77.571,86.799,79.322,88.09,80.613C89.381,81.905,91.133,82.63,92.959,82.63L134.274,82.63C136.1,82.63,137.852,81.905,139.143,80.613C140.434,79.322,141.16,77.571,141.16,75.744C141.16,73.918,140.434,72.167,139.143,70.875C137.852,69.584,136.1,68.859,134.274,68.859ZM134.274,68.859"/>
</g>
  <g id="Ultralight-L" transform="matrix(1.0,0.0,0.0,1.0,488.6984719016335,1479.4548606178978)">  <path stroke-width="1px" stroke="none" stroke-linejoin="miter" stroke-dasharray="none" stroke-linecap="butt" fill="#000000" stroke-miterlimit="4" fill-opacity="1" fill-rule="nonzero" stroke-opacity="1" d="M10.329,0C8.967,0,7.636,0.404,6.503,1.16C5.371,1.917,4.488,2.993,3.967,4.251C3.446,5.509,3.31,6.894,3.575,8.229C3.841,9.565,4.497,10.792,5.46,11.755C6.423,12.718,7.65,13.374,8.985,13.639C10.321,13.905,11.706,13.769,12.964,13.248C14.222,12.726,15.298,11.844,16.054,10.711C16.811,9.579,17.215,8.248,17.215,6.886C17.215,5.06,16.489,3.308,15.198,2.017C13.906,0.725,12.155,0,10.329,0ZM37.872,13.772L134.274,13.772C136.1,13.772,137.852,13.046,139.143,11.755C140.434,10.464,141.16,8.712,141.16,6.886C141.16,5.06,140.434,3.308,139.143,2.017C137.852,0.725,136.1,0,134.274,0L37.872,0C36.046,0,34.295,0.725,33.003,2.017C31.712,3.308,30.986,5.06,30.986,6.886C30.986,8.712,31.712,10.464,33.003,11.755C34.295,13.046,36.046,13.772,37.872,13.772ZM37.872,34.429C36.51,34.429,35.179,34.833,34.047,35.59C32.914,36.346,32.032,37.422,31.511,38.68C30.989,39.938,30.853,41.323,31.119,42.659C31.384,43.994,32.04,45.221,33.003,46.184C33.966,47.147,35.193,47.803,36.529,48.069C37.865,48.334,39.249,48.198,40.507,47.677C41.766,47.156,42.841,46.273,43.598,45.141C44.354,44.008,44.758,42.677,44.758,41.315C44.758,39.489,44.033,37.737,42.741,36.446C41.45,35.155,39.698,34.429,37.872,34.429ZM65.416,68.859C64.054,68.859,62.722,69.262,61.59,70.019C60.458,70.776,59.575,71.851,59.054,73.109C58.533,74.367,58.396,75.752,58.662,77.088C58.928,78.424,59.584,79.651,60.547,80.613C61.51,81.577,62.737,82.232,64.072,82.498C65.408,82.764,66.793,82.628,68.051,82.106C69.309,81.585,70.385,80.702,71.141,79.57C71.898,78.438,72.302,77.106,72.302,75.744C72.302,73.918,71.576,72.167,70.285,70.875C68.994,69.584,67.242,68.859,65.416,68.859ZM134.274,34.429L65.416,34.429C63.589,34.429,61.838,35.155,60.547,36.446C59.255,37.737,58.53,39.489,58.53,41.315C58.53,43.141,59.255,44.893,60.547,46.184C61.838,47.476,63.589,48.201,65.416,48.201L134.274,48.201C136.1,48.201,137.852,47.476,139.143,46.184C140.434,44.893,141.16,43.141,141.16,41.315C141.16,39.489,140.434,37.737,139.143,36.446C137.852,35.155,136.1,34.429,134.274,34.429ZM134.274,68.859L92.959,68.859C91.133,68.859,89.381,69.584,88.09,70.875C86.799,72.167,86.073,73.918,86.073,75.744C86.073,77.571,86.799,79.322,88.09,80.613C89.381,81.905,91.133,82.63,92.959,82.63L134.274,82.63C136.1,82.63,137.852,81.905,139.143,80.613C140.434,79.322,141.16,77.571,141.16,75.744C141.16,73.918,140.434,72.167,139.143,70.875C137.852,69.584,136.1,68.859,134.274,68.859ZM134.274,68.859"/>
</g>
  <g id="Black-M" transform="matrix(1.0,0.0,0.0,1.0,2878.632303799716,1058.742764559659)">  <path stroke-opacity="1" fill-opacity="1" stroke="none" stroke-width="1px" fill-rule="nonzero" stroke-dasharray="none" fill="#000000" stroke-miterlimit="4" stroke-linejoin="miter" stroke-linecap="butt" d="M8.007,0C6.951,0,5.919,0.313,5.041,0.9C4.163,1.486,3.479,2.32,3.075,3.295C2.671,4.271,2.566,5.344,2.772,6.379C2.977,7.415,3.486,8.366,4.232,9.112C4.979,9.859,5.93,10.367,6.965,10.573C8.001,10.779,9.074,10.673,10.05,10.269C11.025,9.865,11.859,9.181,12.445,8.303C13.032,7.426,13.345,6.394,13.345,5.338C13.345,3.922,12.782,2.564,11.781,1.563C10.78,0.562,9.423,0,8.007,0ZM29.358,10.676L104.089,10.676C105.504,10.676,106.862,10.113,107.863,9.112C108.864,8.111,109.426,6.754,109.426,5.338C109.426,3.922,108.864,2.564,107.863,1.563C106.862,0.562,105.504,0,104.089,0L29.358,0C27.943,0,26.585,0.562,25.584,1.563C24.583,2.564,24.02,3.922,24.02,5.338C24.02,6.754,24.583,8.111,25.584,9.112C26.585,10.113,27.943,10.676,29.358,10.676ZM29.358,26.689C28.303,26.689,27.271,27.002,26.393,27.589C25.515,28.175,24.831,29.009,24.427,29.985C24.023,30.96,23.917,32.033,24.123,33.069C24.329,34.104,24.837,35.055,25.584,35.802C26.33,36.548,27.282,37.057,28.317,37.263C29.352,37.469,30.426,37.363,31.401,36.959C32.376,36.555,33.21,35.871,33.797,34.993C34.383,34.115,34.696,33.083,34.696,32.027C34.696,30.612,34.134,29.254,33.133,28.253C32.132,27.252,30.774,26.689,29.358,26.689ZM50.71,53.379C49.654,53.379,48.622,53.692,47.744,54.278C46.866,54.865,46.182,55.699,45.778,56.674C45.374,57.649,45.269,58.723,45.475,59.758C45.68,60.794,46.189,61.745,46.935,62.491C47.682,63.238,48.633,63.746,49.668,63.952C50.704,64.158,51.777,64.052,52.753,63.648C53.728,63.244,54.562,62.56,55.148,61.682C55.735,60.804,56.048,59.772,56.048,58.717C56.048,57.301,55.485,55.943,54.484,54.942C53.483,53.941,52.126,53.379,50.71,53.379ZM104.089,26.689L50.71,26.689C49.294,26.689,47.936,27.252,46.935,28.253C45.934,29.254,45.372,30.612,45.372,32.027C45.372,33.443,45.934,34.801,46.935,35.802C47.936,36.803,49.294,37.365,50.71,37.365L104.089,37.365C105.504,37.365,106.862,36.803,107.863,35.802C108.864,34.801,109.426,33.443,109.426,32.027C109.426,30.612,108.864,29.254,107.863,28.253C106.862,27.252,105.504,26.689,104.089,26.689ZM104.089,53.379L72.061,53.379C70.646,53.379,69.288,53.941,68.287,54.942C67.286,55.943,66.723,57.301,66.723,58.717C66.723,60.132,67.286,61.49,68.287,62.491C69.288,63.492,70.646,64.055,72.061,64.055L104.089,64.055C105.504,64.055,106.862,63.492,107.863,62.491C108.864,61.49,109.426,60.132,109.426,58.717C109.426,57.301,108.864,55.943,107.863,54.942C106.862,53.941,105.504,53.379,104.089,53.379ZM104.089,53.379"/>
</g>
  <g id="Heavy-M" transform="matrix(1.0,0.0,0.0,1.0,2581.922303799716,1058.742764559659)">  <path stroke="none" stroke-dasharray="none" stroke-width="1px" stroke-miterlimit="4" fill="#000000" stroke-linejoin="miter" fill-rule="nonzero" stroke-opacity="1" stroke-linecap="butt" fill-opacity="1" d="M8.007,0C6.951,0,5.919,0.313,5.041,0.9C4.163,1.486,3.479,2.32,3.075,3.295C2.671,4.271,2.566,5.344,2.772,6.379C2.977,7.415,3.486,8.366,4.232,9.112C4.979,9.859,5.93,10.367,6.965,10.573C8.001,10.779,9.074,10.673,10.05,10.269C11.025,9.865,11.859,9.181,12.445,8.303C13.032,7.426,13.345,6.394,13.345,5.338C13.345,3.922,12.782,2.564,11.781,1.563C10.78,0.562,9.423,0,8.007,0ZM29.358,10.676L104.089,10.676C105.504,10.676,106.862,10.113,107.863,9.112C108.864,8.111,109.426,6.754,109.426,5.338C109.426,3.922,108.864,2.564,107.863,1.563C106.862,0.562,105.504,0,104.089,0L29.358,0C27.943,0,26.585,0.562,25.584,1.563C24.583,2.564,24.02,3.922,24.02,5.338C24.02,6.754,24.583,8.111,25.584,9.112C26.585,10.113,27.943,10.676,29.358,10.676ZM29.358,26.689C28.303,26.689,27.271,27.002,26.393,27.589C25.515,28.175,24.831,29.009,24.427,29.985C24.023,30.96,23.917,32.033,24.123,33.069C24.329,34.104,24.837,35.055,25.584,35.802C26.33,36.548,27.282,37.057,28.317,37.263C29.352,37.469,30.426,37.363,31.401,36.959C32.376,36.555,33.21,35.871,33.797,34.993C34.383,34.115,34.696,33.083,34.696,32.027C34.696,30.612,34.134,29.254,33.133,28.253C32.132,27.252,30.774,26.689,29.358,26.689ZM50.71,53.379C49.654,53.379,48.622,53.692,47.744,54.278C46.866,54.865,46.182,55.699,45.778,56.674C45.374,57.649,45.269,58.723,45.475,59.758C45.68,60.794,46.189,61.745,46.935,62.491C47.682,63.238,48.633,63.746,49.668,63.952C50.704,64.158,51.777,64.052,52.753,63.648C53.728,63.244,54.562,62.56,55.148,61.682C55.735,60.804,56.048,59.772,56.048,58.717C56.048,57.301,55.485,55.943,54.484,54.942C53.483,53.941,52.126,53.379,50.71,53.379ZM104.089,26.689L50.71,26.689C49.294,26.689,47.936,27.252,46.935,28.253C45.934,29.254,45.372,30.612,45.372,32.027C45.372,33.443,45.934,34.801,46.935,35.802C47.936,36.803,49.294,37.365,50.71,37.365L104.089,37.365C105.504,37.365,106.862,36.803,107.863,35.802C108.864,34.801,109.426,33.443,109.426,32.027C109.426,30.612,108.864,29.254,107.863,28.253C106.862,27.252,105.504,26.689,104.089,26.689ZM104.089,53.379L72.061,53.379C70.646,53.379,69.288,53.941,68.287,54.942C67.286,55.943,66.723,57.301,66.723,58.717C66.723,60.132,67.286,61.49,68.287,62.491C69.288,63.492,70.646,64.055,72.061,64.055L104.089,64.055C105.504,64.055,106.862,63.492,107.863,62.491C108.864,61.49,109.426,60.132,109.426,58.717C109.426,57.301,108.864,55.943,107.863,54.942C106.862,53.941,105.504,53.379,104.089,53.379ZM104.089,53.379"/>
</g>
  <g id="Bold-M" transform="matrix(1.0,0.0,0.0,1.0,2285.2123037997158,1058.742764559659)">  <path stroke-dasharray="none" stroke-opacity="1" stroke-linejoin="miter" stroke="none" stroke-miterlimit="4" fill="#000000" stroke-width="1px" fill-rule="nonzero" fill-opacity="1" stroke-linecap="butt" d="M8.007,0C6.951,0,5.919,0.313,5.041,0.9C4.163,1.486,3.479,2.32,3.075,3.295C2.671,4.271,2.566,5.344,2.772,6.379C2.977,7.415,3.486,8.366,4.232,9.112C4.979,9.859,5.93,10.367,6.965,10.573C8.001,10.779,9.074,10.673,10.05,10.269C11.025,9.865,11.859,9.181,12.445,8.303C13.032,7.426,13.345,6.394,13.345,5.338C13.345,3.922,12.782,2.564,11.781,1.563C10.78,0.562,9.423,0,8.007,0ZM29.358,10.676L104.089,10.676C105.504,10.676,106.862,10.113,107.863,9.112C108.864,8.111,109.426,6.754,109.426,5.338C109.426,3.922,108.864,2.564,107.863,1.563C106.862,0.562,105.504,0,104.089,0L29.358,0C27.943,0,26.585,0.562,25.584,1.563C24.583,2.564,24.02,3.922,24.02,5.338C24.02,6.754,24.583,8.111,25.584,9.112C26.585,10.113,27.943,10.676,29.358,10.676ZM29.358,26.689C28.303,26.689,27.271,27.002,26.393,27.589C25.515,28.175,24.831,29.009,24.427,29.985C24.023,30.96,23.917,32.033,24.123,33.069C24.329,34.104,24.837,35.055,25.584,35.802C26.33,36.548,27.282,37.057,28.317,37.263C29.352,37.469,30.426,37.363,31.401,36.959C32.376,36.555,33.21,35.871,33.797,34.993C34.383,34.115,34.696,33.083,34.696,32.027C34.696,30.612,34.134,29.254,33.133,28.253C32.132,27.252,30.774,26.689,29.358,26.689ZM50.71,53.379C49.654,53.379,48.622,53.692,47.744,54.278C46.866,54.865,46.182,55.699,45.778,56.674C45.374,57.649,45.269,58.723,45.475,59.758C45.68,60.794,46.189,61.745,46.935,62.491C47.682,63.238,48.633,63.746,49.668,63.952C50.704,64.158,51.777,64.052,52.753,63.648C53.728,63.244,54.562,62.56,55.148,61.682C55.735,60.804,56.048,59.772,56.048,58.717C56.048,57.301,55.485,55.943,54.484,54.942C53.483,53.941,52.126,53.379,50.71,53.379ZM104.089,26.689L50.71,26.689C49.294,26.689,47.936,27.252,46.935,28.253C45.934,29.254,45.372,30.612,45.372,32.027C45.372,33.443,45.934,34.801,46.935,35.802C47.936,36.803,49.294,37.365,50.71,37.365L104.089,37.365C105.504,37.365,106.862,36.803,107.863,35.802C108.864,34.801,109.426,33.443,109.426,32.027C109.426,30.612,108.864,29.254,107.863,28.253C106.862,27.252,105.504,26.689,104.089,26.689ZM104.089,53.379L72.061,53.379C70.646,53.379,69.288,53.941,68.287,54.942C67.286,55.943,66.723,57.301,66.723,58.717C66.723,60.132,67.286,61.49,68.287,62.491C69.288,63.492,70.646,64.055,72.061,64.055L104.089,64.055C105.504,64.055,106.862,63.492,107.863,62.491C108.864,61.49,109.426,60.132,109.426,58.717C109.426,57.301,108.864,55.943,107.863,54.942C106.862,53.941,105.504,53.379,104.089,53.379ZM104.089,53.379"/>
</g>
  <g id="Semibold-M" transform="matrix(1.0,0.0,0.0,1.0,1988.502303799716,1058.742764559659)">  <path stroke-dasharray="none" stroke-linejoin="miter" fill-opacity="1" fill-rule="nonzero" stroke="none" stroke-width="1px" stroke-linecap="butt" stroke-miterlimit="4" stroke-opacity="1" fill="#000000" d="M8.007,0C6.951,0,5.919,0.313,5.041,0.9C4.163,1.486,3.479,2.32,3.075,3.295C2.671,4.271,2.566,5.344,2.772,6.379C2.977,7.415,3.486,8.366,4.232,9.112C4.979,9.859,5.93,10.367,6.965,10.573C8.001,10.779,9.074,10.673,10.05,10.269C11.025,9.865,11.859,9.181,12.445,8.303C13.032,7.426,13.345,6.394,13.345,5.338C13.345,3.922,12.782,2.564,11.781,1.563C10.78,0.562,9.423,0,8.007,0ZM29.358,10.676L104.089,10.676C105.504,10.676,106.862,10.113,107.863,9.112C108.864,8.111,109.426,6.754,109.426,5.338C109.426,3.922,108.864,2.564,107.863,1.563C106.862,0.562,105.504,0,104.089,0L29.358,0C27.943,0,26.585,0.562,25.584,1.563C24.583,2.564,24.02,3.922,24.02,5.338C24.02,6.754,24.583,8.111,25.584,9.112C26.585,10.113,27.943,10.676,29.358,10.676ZM29.358,26.689C28.303,26.689,27.271,27.002,26.393,27.589C25.515,28.175,24.831,29.009,24.427,29.985C24.023,30.96,23.917,32.033,24.123,33.069C24.329,34.104,24.837,35.055,25.584,35.802C26.33,36.548,27.282,37.057,28.317,37.263C29.352,37.469,30.426,37.363,31.401,36.959C32.376,36.555,33.21,35.871,33.797,34.993C34.383,34.115,34.696,33.083,34.696,32.027C34.696,30.612,34.134,29.254,33.133,28.253C32.132,27.252,30.774,26.689,29.358,26.689ZM50.71,53.379C49.654,53.379,48.622,53.692,47.744,54.278C46.866,54.865,46.182,55.699,45.778,56.674C45.374,57.649,45.269,58.723,45.475,59.758C45.68,60.794,46.189,61.745,46.935,62.491C47.682,63.238,48.633,63.746,49.668,63.952C50.704,64.158,51.777,64.052,52.753,63.648C53.728,63.244,54.562,62.56,55.148,61.682C55.735,60.804,56.048,59.772,56.048,58.717C56.048,57.301,55.485,55.943,54.484,54.942C53.483,53.941,52.126,53.379,50.71,53.379ZM104.089,26.689L50.71,26.689C49.294,26.689,47.936,27.252,46.935,28.253C45.934,29.254,45.372,30.612,45.372,32.027C45.372,33.443,45.934,34.801,46.935,35.802C47.936,36.803,49.294,37.365,50.71,37.365L104.089,37.365C105.504,37.365,106.862,36.803,107.863,35.802C108.864,34.801,109.426,33.443,109.426,32.027C109.426,30.612,108.864,29.254,107.863,28.253C106.862,27.252,105.504,26.689,104.089,26.689ZM104.089,53.379L72.061,53.379C70.646,53.379,69.288,53.941,68.287,54.942C67.286,55.943,66.723,57.301,66.723,58.717C66.723,60.132,67.286,61.49,68.287,62.491C69.288,63.492,70.646,64.055,72.061,64.055L104.089,64.055C105.504,64.055,106.862,63.492,107.863,62.491C108.864,61.49,109.426,60.132,109.426,58.717C109.426,57.301,108.864,55.943,107.863,54.942C106.862,53.941,105.504,53.379,104.089,53.379ZM104.089,53.379"/>
</g>
  <g id="Medium-M" transform="matrix(1.0,0.0,0.0,1.0,1691.792303799716,1058.742764559659)">  <path stroke="none" stroke-opacity="1" stroke-miterlimit="4" fill-rule="nonzero" stroke-dasharray="none" fill-opacity="1" stroke-linecap="butt" fill="#000000" stroke-width="1px" stroke-linejoin="miter" d="M8.007,0C6.951,0,5.919,0.313,5.041,0.9C4.163,1.486,3.479,2.32,3.075,3.295C2.671,4.271,2.566,5.344,2.772,6.379C2.977,7.415,3.486,8.366,4.232,9.112C4.979,9.859,5.93,10.367,6.965,10.573C8.001,10.779,9.074,10.673,10.05,10.269C11.025,9.865,11.859,9.181,12.445,8.303C13.032,7.426,13.345,6.394,13.345,5.338C13.345,3.922,12.782,2.564,11.781,1.563C10.78,0.562,9.423,0,8.007,0ZM29.358,10.676L104.089,10.676C105.504,10.676,106.862,10.113,107.863,9.112C108.864,8.111,109.426,6.754,109.426,5.338C109.426,3.922,108.864,2.564,107.863,1.563C106.862,0.562,105.504,0,104.089,0L29.358,0C27.943,0,26.585,0.562,25.584,1.563C24.583,2.564,24.02,3.922,24.02,5.338C24.02,6.754,24.583,8.111,25.584,9.112C26.585,10.113,27.943,10.676,29.358,10.676ZM29.358,26.689C28.303,26.689,27.271,27.002,26.393,27.589C25.515,28.175,24.831,29.009,24.427,29.985C24.023,30.96,23.917,32.033,24.123,33.069C24.329,34.104,24.837,35.055,25.584,35.802C26.33,36.548,27.282,37.057,28.317,37.263C29.352,37.469,30.426,37.363,31.401,36.959C32.376,36.555,33.21,35.871,33.797,34.993C34.383,34.115,34.696,33.083,34.696,32.027C34.696,30.612,34.134,29.254,33.133,28.253C32.132,27.252,30.774,26.689,29.358,26.689ZM50.71,53.379C49.654,53.379,48.622,53.692,47.744,54.278C46.866,54.865,46.182,55.699,45.778,56.674C45.374,57.649,45.269,58.723,45.475,59.758C45.68,60.794,46.189,61.745,46.935,62.491C47.682,63.238,48.633,63.746,49.668,63.952C50.704,64.158,51.777,64.052,52.753,63.648C53.728,63.244,54.562,62.56,55.148,61.682C55.735,60.804,56.048,59.772,56.048,58.717C56.048,57.301,55.485,55.943,54.484,54.942C53.483,53.941,52.126,53.379,50.71,53.379ZM104.089,26.689L50.71,26.689C49.294,26.689,47.936,27.252,46.935,28.253C45.934,29.254,45.372,30.612,45.372,32.027C45.372,33.443,45.934,34.801,46.935,35.802C47.936,36.803,49.294,37.365,50.71,37.365L104.089,37.365C105.504,37.365,106.862,36.803,107.863,35.802C108.864,34.801,109.426,33.443,109.426,32.027C109.426,30.612,108.864,29.254,107.863,28.253C106.862,27.252,105.504,26.689,104.089,26.689ZM104.089,53.379L72.061,53.379C70.646,53.379,69.288,53.941,68.287,54.942C67.286,55.943,66.723,57.301,66.723,58.717C66.723,60.132,67.286,61.49,68.287,62.491C69.288,63.492,70.646,64.055,72.061,64.055L104.089,64.055C105.504,64.055,106.862,63.492,107.863,62.491C108.864,61.49,109.426,60.132,109.426,58.717C109.426,57.301,108.864,55.943,107.863,54.942C106.862,53.941,105.504,53.379,104.089,53.379ZM104.089,53.379"/>
</g>
  <g id="Regular-M" transform="matrix(1.0,0.0,0.0,1.0,1395.0823037997159,1058.742764559659)">  <path stroke-linecap="butt" stroke-opacity="1" fill-opacity="1" fill="#000000" stroke-width="1px" fill-rule="nonzero" stroke="none" stroke-miterlimit="4" stroke-linejoin="miter" stroke-dasharray="none" d="M8.007,0C6.951,0,5.919,0.313,5.041,0.9C4.163,1.486,3.479,2.32,3.075,3.295C2.671,4.271,2.566,5.344,2.772,6.379C2.977,7.415,3.486,8.366,4.232,9.112C4.979,9.859,5.93,10.367,6.965,10.573C8.001,10.779,9.074,10.673,10.05,10.269C11.025,9.865,11.859,9.181,12.445,8.303C13.032,7.426,13.345,6.394,13.345,5.338C13.345,3.922,12.782,2.564,11.781,1.563C10.78,0.562,9.423,0,8.007,0ZM29.358,10.676L104.089,10.676C105.504,10.676,106.862,10.113,107.863,9.112C108.864,8.111,109.426,6.754,109.426,5.338C109.426,3.922,108.864,2.564,107.863,1.563C106.862,0.562,105.504,0,104.089,0L29.358,0C27.943,0,26.585,0.562,25.584,1.563C24.583,2.564,24.02,3.922,24.02,5.338C24.02,6.754,24.583,8.111,25.584,9.112C26.585,10.113,27.943,10.676,29.358,10.676ZM29.358,26.689C28.303,26.689,27.271,27.002,26.393,27.589C25.515,28.175,24.831,29.009,24.427,29.985C24.023,30.96,23.917,32.033,24.123,33.069C24.329,34.104,24.837,35.055,25.584,35.802C26.33,36.548,27.282,37.057,28.317,37.263C29.352,37.469,30.426,37.363,31.401,36.959C32.376,36.555,33.21,35.871,33.797,34.993C34.383,34.115,34.696,33.083,34.696,32.027C34.696,30.612,34.134,29.254,33.133,28.253C32.132,27.252,30.774,26.689,29.358,26.689ZM50.71,53.379C49.654,53.379,48.622,53.692,47.744,54.278C46.866,54.865,46.182,55.699,45.778,56.674C45.374,57.649,45.269,58.723,45.475,59.758C45.68,60.794,46.189,61.745,46.935,62.491C47.682,63.238,48.633,63.746,49.668,63.952C50.704,64.158,51.777,64.052,52.753,63.648C53.728,63.244,54.562,62.56,55.148,61.682C55.735,60.804,56.048,59.772,56.048,58.717C56.048,57.301,55.485,55.943,54.484,54.942C53.483,53.941,52.126,53.379,50.71,53.379ZM104.089,26.689L50.71,26.689C49.294,26.689,47.936,27.252,46.935,28.253C45.934,29.254,45.372,30.612,45.372,32.027C45.372,33.443,45.934,34.801,46.935,35.802C47.936,36.803,49.294,37.365,50.71,37.365L104.089,37.365C105.504,37.365,106.862,36.803,107.863,35.802C108.864,34.801,109.426,33.443,109.426,32.027C109.426,30.612,108.864,29.254,107.863,28.253C106.862,27.252,105.504,26.689,104.089,26.689ZM104.089,53.379L72.061,53.379C70.646,53.379,69.288,53.941,68.287,54.942C67.286,55.943,66.723,57.301,66.723,58.717C66.723,60.132,67.286,61.49,68.287,62.491C69.288,63.492,70.646,64.055,72.061,64.055L104.089,64.055C105.504,64.055,106.862,63.492,107.863,62.491C108.864,61.49,109.426,60.132,109.426,58.717C109.426,57.301,108.864,55.943,107.863,54.942C106.862,53.941,105.504,53.379,104.089,53.379ZM104.089,53.379"/>
</g>
  <g id="Light-M" transform="matrix(1.0,0.0,0.0,1.0,1098.372303799716,1058.742764559659)">  <path stroke-width="1px" stroke-linejoin="miter" fill-opacity="1" stroke-opacity="1" stroke-miterlimit="4" stroke="none" stroke-dasharray="none" stroke-linecap="butt" fill="#000000" fill-rule="nonzero" d="M8.007,0C6.951,0,5.919,0.313,5.041,0.9C4.163,1.486,3.479,2.32,3.075,3.295C2.671,4.271,2.566,5.344,2.772,6.379C2.977,7.415,3.486,8.366,4.232,9.112C4.979,9.859,5.93,10.367,6.965,10.573C8.001,10.779,9.074,10.673,10.05,10.269C11.025,9.865,11.859,9.181,12.445,8.303C13.032,7.426,13.345,6.394,13.345,5.338C13.345,3.922,12.782,2.564,11.781,1.563C10.78,0.562,9.423,0,8.007,0ZM29.358,10.676L104.089,10.676C105.504,10.676,106.862,10.113,107.863,9.112C108.864,8.111,109.426,6.754,109.426,5.338C109.426,3.922,108.864,2.564,107.863,1.563C106.862,0.562,105.504,0,104.089,0L29.358,0C27.943,0,26.585,0.562,25.584,1.563C24.583,2.564,24.02,3.922,24.02,5.338C24.02,6.754,24.583,8.111,25.584,9.112C26.585,10.113,27.943,10.676,29.358,10.676ZM29.358,26.689C28.303,26.689,27.271,27.002,26.393,27.589C25.515,28.175,24.831,29.009,24.427,29.985C24.023,30.96,23.917,32.033,24.123,33.069C24.329,34.104,24.837,35.055,25.584,35.802C26.33,36.548,27.282,37.057,28.317,37.263C29.352,37.469,30.426,37.363,31.401,36.959C32.376,36.555,33.21,35.871,33.797,34.993C34.383,34.115,34.696,33.083,34.696,32.027C34.696,30.612,34.134,29.254,33.133,28.253C32.132,27.252,30.774,26.689,29.358,26.689ZM50.71,53.379C49.654,53.379,48.622,53.692,47.744,54.278C46.866,54.865,46.182,55.699,45.778,56.674C45.374,57.649,45.269,58.723,45.475,59.758C45.68,60.794,46.189,61.745,46.935,62.491C47.682,63.238,48.633,63.746,49.668,63.952C50.704,64.158,51.777,64.052,52.753,63.648C53.728,63.244,54.562,62.56,55.148,61.682C55.735,60.804,56.048,59.772,56.048,58.717C56.048,57.301,55.485,55.943,54.484,54.942C53.483,53.941,52.126,53.379,50.71,53.379ZM104.089,26.689L50.71,26.689C49.294,26.689,47.936,27.252,46.935,28.253C45.934,29.254,45.372,30.612,45.372,32.027C45.372,33.443,45.934,34.801,46.935,35.802C47.936,36.803,49.294,37.365,50.71,37.365L104.089,37.365C105.504,37.365,106.862,36.803,107.863,35.802C108.864,34.801,109.426,33.443,109.426,32.027C109.426,30.612,108.864,29.254,107.863,28.253C106.862,27.252,105.504,26.689,104.089,26.689ZM104.089,53.379L72.061,53.379C70.646,53.379,69.288,53.941,68.287,54.942C67.286,55.943,66.723,57.301,66.723,58.717C66.723,60.132,67.286,61.49,68.287,62.491C69.288,63.492,70.646,64.055,72.061,64.055L104.089,64.055C105.504,64.055,106.862,63.492,107.863,62.491C108.864,61.49,109.426,60.132,109.426,58.717C109.426,57.301,108.864,55.943,107.863,54.942C106.862,53.941,105.504,53.379,104.089,53.379ZM104.089,53.379"/>
</g>
  <g id="Thin-M" transform="matrix(1.0,0.0,0.0,1.0,801.6623037997159,1058.742764559659)">  <path stroke-width="1px" stroke="none" stroke-linecap="butt" stroke-miterlimit="4" stroke-linejoin="miter" stroke-opacity="1" fill-opacity="1" stroke-dasharray="none" fill="#000000" fill-rule="nonzero" d="M8.007,0C6.951,0,5.919,0.313,5.041,0.9C4.163,1.486,3.479,2.32,3.075,3.295C2.671,4.271,2.566,5.344,2.772,6.379C2.977,7.415,3.486,8.366,4.232,9.112C4.979,9.859,5.93,10.367,6.965,10.573C8.001,10.779,9.074,10.673,10.05,10.269C11.025,9.865,11.859,9.181,12.445,8.303C13.032,7.426,13.345,6.394,13.345,5.338C13.345,3.922,12.782,2.564,11.781,1.563C10.78,0.562,9.423,0,8.007,0ZM29.358,10.676L104.089,10.676C105.504,10.676,106.862,10.113,107.863,9.112C108.864,8.111,109.426,6.754,109.426,5.338C109.426,3.922,108.864,2.564,107.863,1.563C106.862,0.562,105.504,0,104.089,0L29.358,0C27.943,0,26.585,0.562,25.584,1.563C24.583,2.564,24.02,3.922,24.02,5.338C24.02,6.754,24.583,8.111,25.584,9.112C26.585,10.113,27.943,10.676,29.358,10.676ZM29.358,26.689C28.303,26.689,27.271,27.002,26.393,27.589C25.515,28.175,24.831,29.009,24.427,29.985C24.023,30.96,23.917,32.033,24.123,33.069C24.329,34.104,24.837,35.055,25.584,35.802C26.33,36.548,27.282,37.057,28.317,37.263C29.352,37.469,30.426,37.363,31.401,36.959C32.376,36.555,33.21,35.871,33.797,34.993C34.383,34.115,34.696,33.083,34.696,32.027C34.696,30.612,34.134,29.254,33.133,28.253C32.132,27.252,30.774,26.689,29.358,26.689ZM50.71,53.379C49.654,53.379,48.622,53.692,47.744,54.278C46.866,54.865,46.182,55.699,45.778,56.674C45.374,57.649,45.269,58.723,45.475,59.758C45.68,60.794,46.189,61.745,46.935,62.491C47.682,63.238,48.633,63.746,49.668,63.952C50.704,64.158,51.777,64.052,52.753,63.648C53.728,63.244,54.562,62.56,55.148,61.682C55.735,60.804,56.048,59.772,56.048,58.717C56.048,57.301,55.485,55.943,54.484,54.942C53.483,53.941,52.126,53.379,50.71,53.379ZM104.089,26.689L50.71,26.689C49.294,26.689,47.936,27.252,46.935,28.253C45.934,29.254,45.372,30.612,45.372,32.027C45.372,33.443,45.934,34.801,46.935,35.802C47.936,36.803,49.294,37.365,50.71,37.365L104.089,37.365C105.504,37.365,106.862,36.803,107.863,35.802C108.864,34.801,109.426,33.443,109.426,32.027C109.426,30.612,108.864,29.254,107.863,28.253C106.862,27.252,105.504,26.689,104.089,26.689ZM104.089,53.379L72.061,53.379C70.646,53.379,69.288,53.941,68.287,54.942C67.286,55.943,66.723,57.301,66.723,58.717C66.723,60.132,67.286,61.49,68.287,62.491C69.288,63.492,70.646,64.055,72.061,64.055L104.089,64.055C105.504,64.055,106.862,63.492,107.863,62.491C108.864,61.49,109.426,60.132,109.426,58.717C109.426,57.301,108.864,55.943,107.863,54.942C106.862,53.941,105.504,53.379,104.089,53.379ZM104.089,53.379"/>
</g>
  <g id="Ultralight-M" transform="matrix(1.0,0.0,0.0,1.0,504.9523037997159,1058.742764559659)">  <path stroke-width="1px" stroke="none" stroke-linejoin="miter" stroke-dasharray="none" stroke-linecap="butt" fill="#000000" stroke-miterlimit="4" fill-opacity="1" fill-rule="nonzero" stroke-opacity="1" d="M8.007,0C6.951,0,5.919,0.313,5.041,0.9C4.163,1.486,3.479,2.32,3.075,3.295C2.671,4.271,2.566,5.344,2.772,6.379C2.977,7.415,3.486,8.366,4.232,9.112C4.979,9.859,5.93,10.367,6.965,10.573C8.001,10.779,9.074,10.673,10.05,10.269C11.025,9.865,11.859,9.181,12.445,8.303C13.032,7.426,13.345,6.394,13.345,5.338C13.345,3.922,12.782,2.564,11.781,1.563C10.78,0.562,9.423,0,8.007,0ZM29.358,10.676L104.089,10.676C105.504,10.676,106.862,10.113,107.863,9.112C108.864,8.111,109.426,6.754,109.426,5.338C109.426,3.922,108.864,2.564,107.863,1.563C106.862,0.562,105.504,0,104.089,0L29.358,0C27.943,0,26.585,0.562,25.584,1.563C24.583,2.564,24.02,3.922,24.02,5.338C24.02,6.754,24.583,8.111,25.584,9.112C26.585,10.113,27.943,10.676,29.358,10.676ZM29.358,26.689C28.303,26.689,27.271,27.002,26.393,27.589C25.515,28.175,24.831,29.009,24.427,29.985C24.023,30.96,23.917,32.033,24.123,33.069C24.329,34.104,24.837,35.055,25.584,35.802C26.33,36.548,27.282,37.057,28.317,37.263C29.352,37.469,30.426,37.363,31.401,36.959C32.376,36.555,33.21,35.871,33.797,34.993C34.383,34.115,34.696,33.083,34.696,32.027C34.696,30.612,34.134,29.254,33.133,28.253C32.132,27.252,30.774,26.689,29.358,26.689ZM50.71,53.379C49.654,53.379,48.622,53.692,47.744,54.278C46.866,54.865,46.182,55.699,45.778,56.674C45.374,57.649,45.269,58.723,45.475,59.758C45.68,60.794,46.189,61.745,46.935,62.491C47.682,63.238,48.633,63.746,49.668,63.952C50.704,64.158,51.777,64.052,52.753,63.648C53.728,63.244,54.562,62.56,55.148,61.682C55.735,60.804,56.048,59.772,56.048,58.717C56.048,57.301,55.485,55.943,54.484,54.942C53.483,53.941,52.126,53.379,50.71,53.379ZM104.089,26.689L50.71,26.689C49.294,26.689,47.936,27.252,46.935,28.253C45.934,29.254,45.372,30.612,45.372,32.027C45.372,33.443,45.934,34.801,46.935,35.802C47.936,36.803,49.294,37.365,50.71,37.365L104.089,37.365C105.504,37.365,106.862,36.803,107.863,35.802C108.864,34.801,109.426,33.443,109.426,32.027C109.426,30.612,108.864,29.254,107.863,28.253C106.862,27.252,105.504,26.689,104.089,26.689ZM104.089,53.379L72.061,53.379C70.646,53.379,69.288,53.941,68.287,54.942C67.286,55.943,66.723,57.301,66.723,58.717C66.723,60.132,67.286,61.49,68.287,62.491C69.288,63.492,70.646,64.055,72.061,64.055L104.089,64.055C105.504,64.055,106.862,63.492,107.863,62.491C108.864,61.49,109.426,60.132,109.426,58.717C109.426,57.301,108.864,55.943,107.863,54.942C106.862,53.941,105.504,53.379,104.089,53.379ZM104.089,53.379"/>
</g>
  <g id="Black-S" transform="matrix(1.0,0.0,0.0,1.0,2890.7946538751776,635.6926788884944)">  <path stroke-opacity="1" fill-opacity="1" stroke="none" stroke-width="1px" fill-rule="nonzero" stroke-dasharray="none" fill="#000000" stroke-miterlimit="4" stroke-linejoin="miter" stroke-linecap="butt" d="M6.269,0C5.443,0,4.635,0.245,3.947,0.704C3.26,1.164,2.724,1.816,2.408,2.58C2.092,3.344,2.009,4.184,2.17,4.995C2.331,5.806,2.729,6.55,3.314,7.135C3.898,7.719,4.643,8.118,5.454,8.279C6.265,8.44,7.105,8.357,7.869,8.041C8.632,7.725,9.285,7.189,9.745,6.502C10.204,5.814,10.449,5.006,10.449,4.18C10.449,3.071,10.009,2.008,9.225,1.224C8.441,0.44,7.378,0,6.269,0ZM22.988,8.359L81.501,8.359C82.61,8.359,83.673,7.919,84.457,7.135C85.24,6.351,85.681,5.288,85.681,4.18C85.681,3.071,85.24,2.008,84.457,1.224C83.673,0.44,82.61,0,81.501,0L22.988,0C21.879,0,20.816,0.44,20.032,1.224C19.248,2.008,18.808,3.071,18.808,4.18C18.808,5.288,19.248,6.351,20.032,7.135C20.816,7.919,21.879,8.359,22.988,8.359ZM22.988,20.898C22.161,20.898,21.353,21.143,20.666,21.602C19.978,22.061,19.443,22.714,19.126,23.478C18.81,24.242,18.727,25.082,18.888,25.893C19.05,26.703,19.448,27.448,20.032,28.033C20.617,28.617,21.361,29.015,22.172,29.177C22.983,29.338,23.823,29.255,24.587,28.939C25.351,28.622,26.003,28.087,26.463,27.399C26.922,26.712,27.167,25.904,27.167,25.077C27.167,23.969,26.727,22.906,25.943,22.122C25.159,21.338,24.096,20.898,22.988,20.898ZM39.706,41.796C38.879,41.796,38.071,42.04,37.384,42.5C36.696,42.959,36.161,43.612,35.844,44.376C35.528,45.139,35.445,45.98,35.607,46.791C35.768,47.601,36.166,48.346,36.75,48.93C37.335,49.515,38.08,49.913,38.89,50.074C39.701,50.236,40.542,50.153,41.305,49.837C42.069,49.52,42.722,48.984,43.181,48.297C43.64,47.61,43.885,46.802,43.885,45.975C43.885,44.867,43.445,43.803,42.661,43.02C41.877,42.236,40.814,41.796,39.706,41.796ZM81.501,20.898L39.706,20.898C38.597,20.898,37.534,21.338,36.75,22.122C35.967,22.906,35.526,23.969,35.526,25.077C35.526,26.186,35.967,27.249,36.75,28.033C37.534,28.817,38.597,29.257,39.706,29.257L81.501,29.257C82.61,29.257,83.673,28.817,84.457,28.033C85.24,27.249,85.681,26.186,85.681,25.077C85.681,23.969,85.24,22.906,84.457,22.122C83.673,21.338,82.61,20.898,81.501,20.898ZM81.501,41.796L56.424,41.796C55.316,41.796,54.252,42.236,53.469,43.02C52.685,43.803,52.244,44.867,52.244,45.975C52.244,47.084,52.685,48.147,53.469,48.93C54.252,49.714,55.316,50.155,56.424,50.155L81.501,50.155C82.61,50.155,83.673,49.714,84.457,48.93C85.24,48.147,85.681,47.084,85.681,45.975C85.681,44.867,85.24,43.803,84.457,43.02C83.673,42.236,82.61,41.796,81.501,41.796ZM81.501,41.796"/>
</g>
  <g id="Heavy-S" transform="matrix(1.0,0.0,0.0,1.0,2594.0846538751775,635.6926788884944)">  <path stroke="none" stroke-dasharray="none" stroke-width="1px" stroke-miterlimit="4" fill="#000000" stroke-linejoin="miter" fill-rule="nonzero" stroke-opacity="1" stroke-linecap="butt" fill-opacity="1" d="M6.269,0C5.443,0,4.635,0.245,3.947,0.704C3.26,1.164,2.724,1.816,2.408,2.58C2.092,3.344,2.009,4.184,2.17,4.995C2.331,5.806,2.729,6.55,3.314,7.135C3.898,7.719,4.643,8.118,5.454,8.279C6.265,8.44,7.105,8.357,7.869,8.041C8.632,7.725,9.285,7.189,9.745,6.502C10.204,5.814,10.449,5.006,10.449,4.18C10.449,3.071,10.009,2.008,9.225,1.224C8.441,0.44,7.378,0,6.269,0ZM22.988,8.359L81.501,8.359C82.61,8.359,83.673,7.919,84.457,7.135C85.24,6.351,85.681,5.288,85.681,4.18C85.681,3.071,85.24,2.008,84.457,1.224C83.673,0.44,82.61,0,81.501,0L22.988,0C21.879,0,20.816,0.44,20.032,1.224C19.248,2.008,18.808,3.071,18.808,4.18C18.808,5.288,19.248,6.351,20.032,7.135C20.816,7.919,21.879,8.359,22.988,8.359ZM22.988,20.898C22.161,20.898,21.353,21.143,20.666,21.602C19.978,22.061,19.443,22.714,19.126,23.478C18.81,24.242,18.727,25.082,18.888,25.893C19.05,26.703,19.448,27.448,20.032,28.033C20.617,28.617,21.361,29.015,22.172,29.177C22.983,29.338,23.823,29.255,24.587,28.939C25.351,28.622,26.003,28.087,26.463,27.399C26.922,26.712,27.167,25.904,27.167,25.077C27.167,23.969,26.727,22.906,25.943,22.122C25.159,21.338,24.096,20.898,22.988,20.898ZM39.706,41.796C38.879,41.796,38.071,42.04,37.384,42.5C36.696,42.959,36.161,43.612,35.844,44.376C35.528,45.139,35.445,45.98,35.607,46.791C35.768,47.601,36.166,48.346,36.75,48.93C37.335,49.515,38.08,49.913,38.89,50.074C39.701,50.236,40.542,50.153,41.305,49.837C42.069,49.52,42.722,48.984,43.181,48.297C43.64,47.61,43.885,46.802,43.885,45.975C43.885,44.867,43.445,43.803,42.661,43.02C41.877,42.236,40.814,41.796,39.706,41.796ZM81.501,20.898L39.706,20.898C38.597,20.898,37.534,21.338,36.75,22.122C35.967,22.906,35.526,23.969,35.526,25.077C35.526,26.186,35.967,27.249,36.75,28.033C37.534,28.817,38.597,29.257,39.706,29.257L81.501,29.257C82.61,29.257,83.673,28.817,84.457,28.033C85.24,27.249,85.681,26.186,85.681,25.077C85.681,23.969,85.24,22.906,84.457,22.122C83.673,21.338,82.61,20.898,81.501,20.898ZM81.501,41.796L56.424,41.796C55.316,41.796,54.252,42.236,53.469,43.02C52.685,43.803,52.244,44.867,52.244,45.975C52.244,47.084,52.685,48.147,53.469,48.93C54.252,49.714,55.316,50.155,56.424,50.155L81.501,50.155C82.61,50.155,83.673,49.714,84.457,48.93C85.24,48.147,85.681,47.084,85.681,45.975C85.681,44.867,85.24,43.803,84.457,43.02C83.673,42.236,82.61,41.796,81.501,41.796ZM81.501,41.796"/>
</g>
  <g id="Bold-S" transform="matrix(1.0,0.0,0.0,1.0,2297.3746538751775,635.6926788884944)">  <path stroke-dasharray="none" stroke-opacity="1" stroke-linejoin="miter" stroke="none" stroke-miterlimit="4" fill="#000000" stroke-width="1px" fill-rule="nonzero" fill-opacity="1" stroke-linecap="butt" d="M6.269,0C5.443,0,4.635,0.245,3.947,0.704C3.26,1.164,2.724,1.816,2.408,2.58C2.092,3.344,2.009,4.184,2.17,4.995C2.331,5.806,2.729,6.55,3.314,7.135C3.898,7.719,4.643,8.118,5.454,8.279C6.265,8.44,7.105,8.357,7.869,8.041C8.632,7.725,9.285,7.189,9.745,6.502C10.204,5.814,10.449,5.006,10.449,4.18C10.449,3.071,10.009,2.008,9.225,1.224C8.441,0.44,7.378,0,6.269,0ZM22.988,8.359L81.501,8.359C82.61,8.359,83.673,7.919,84.457,7.135C85.24,6.351,85.681,5.288,85.681,4.18C85.681,3.071,85.24,2.008,84.457,1.224C83.673,0.44,82.61,0,81.501,0L22.988,0C21.879,0,20.816,0.44,20.032,1.224C19.248,2.008,18.808,3.071,18.808,4.18C18.808,5.288,19.248,6.351,20.032,7.135C20.816,7.919,21.879,8.359,22.988,8.359ZM22.988,20.898C22.161,20.898,21.353,21.143,20.666,21.602C19.978,22.061,19.443,22.714,19.126,23.478C18.81,24.242,18.727,25.082,18.888,25.893C19.05,26.703,19.448,27.448,20.032,28.033C20.617,28.617,21.361,29.015,22.172,29.177C22.983,29.338,23.823,29.255,24.587,28.939C25.351,28.622,26.003,28.087,26.463,27.399C26.922,26.712,27.167,25.904,27.167,25.077C27.167,23.969,26.727,22.906,25.943,22.122C25.159,21.338,24.096,20.898,22.988,20.898ZM39.706,41.796C38.879,41.796,38.071,42.04,37.384,42.5C36.696,42.959,36.161,43.612,35.844,44.376C35.528,45.139,35.445,45.98,35.607,46.791C35.768,47.601,36.166,48.346,36.75,48.93C37.335,49.515,38.08,49.913,38.89,50.074C39.701,50.236,40.542,50.153,41.305,49.837C42.069,49.52,42.722,48.984,43.181,48.297C43.64,47.61,43.885,46.802,43.885,45.975C43.885,44.867,43.445,43.803,42.661,43.02C41.877,42.236,40.814,41.796,39.706,41.796ZM81.501,20.898L39.706,20.898C38.597,20.898,37.534,21.338,36.75,22.122C35.967,22.906,35.526,23.969,35.526,25.077C35.526,26.186,35.967,27.249,36.75,28.033C37.534,28.817,38.597,29.257,39.706,29.257L81.501,29.257C82.61,29.257,83.673,28.817,84.457,28.033C85.24,27.249,85.681,26.186,85.681,25.077C85.681,23.969,85.24,22.906,84.457,22.122C83.673,21.338,82.61,20.898,81.501,20.898ZM81.501,41.796L56.424,41.796C55.316,41.796,54.252,42.236,53.469,43.02C52.685,43.803,52.244,44.867,52.244,45.975C52.244,47.084,52.685,48.147,53.469,48.93C54.252,49.714,55.316,50.155,56.424,50.155L81.501,50.155C82.61,50.155,83.673,49.714,84.457,48.93C85.24,48.147,85.681,47.084,85.681,45.975C85.681,44.867,85.24,43.803,84.457,43.02C83.673,42.236,82.61,41.796,81.501,41.796ZM81.501,41.796"/>
</g>
  <g id="Semibold-S" transform="matrix(1.0,0.0,0.0,1.0,2000.6646538751775,635.6926788884944)">  <path stroke-dasharray="none" stroke-linejoin="miter" fill-opacity="1" fill-rule="nonzero" stroke="none" stroke-width="1px" stroke-linecap="butt" stroke-miterlimit="4" stroke-opacity="1" fill="#000000" d="M6.269,0C5.443,0,4.635,0.245,3.947,0.704C3.26,1.164,2.724,1.816,2.408,2.58C2.092,3.344,2.009,4.184,2.17,4.995C2.331,5.806,2.729,6.55,3.314,7.135C3.898,7.719,4.643,8.118,5.454,8.279C6.265,8.44,7.105,8.357,7.869,8.041C8.632,7.725,9.285,7.189,9.745,6.502C10.204,5.814,10.449,5.006,10.449,4.18C10.449,3.071,10.009,2.008,9.225,1.224C8.441,0.44,7.378,0,6.269,0ZM22.988,8.359L81.501,8.359C82.61,8.359,83.673,7.919,84.457,7.135C85.24,6.351,85.681,5.288,85.681,4.18C85.681,3.071,85.24,2.008,84.457,1.224C83.673,0.44,82.61,0,81.501,0L22.988,0C21.879,0,20.816,0.44,20.032,1.224C19.248,2.008,18.808,3.071,18.808,4.18C18.808,5.288,19.248,6.351,20.032,7.135C20.816,7.919,21.879,8.359,22.988,8.359ZM22.988,20.898C22.161,20.898,21.353,21.143,20.666,21.602C19.978,22.061,19.443,22.714,19.126,23.478C18.81,24.242,18.727,25.082,18.888,25.893C19.05,26.703,19.448,27.448,20.032,28.033C20.617,28.617,21.361,29.015,22.172,29.177C22.983,29.338,23.823,29.255,24.587,28.939C25.351,28.622,26.003,28.087,26.463,27.399C26.922,26.712,27.167,25.904,27.167,25.077C27.167,23.969,26.727,22.906,25.943,22.122C25.159,21.338,24.096,20.898,22.988,20.898ZM39.706,41.796C38.879,41.796,38.071,42.04,37.384,42.5C36.696,42.959,36.161,43.612,35.844,44.376C35.528,45.139,35.445,45.98,35.607,46.791C35.768,47.601,36.166,48.346,36.75,48.93C37.335,49.515,38.08,49.913,38.89,50.074C39.701,50.236,40.542,50.153,41.305,49.837C42.069,49.52,42.722,48.984,43.181,48.297C43.64,47.61,43.885,46.802,43.885,45.975C43.885,44.867,43.445,43.803,42.661,43.02C41.877,42.236,40.814,41.796,39.706,41.796ZM81.501,20.898L39.706,20.898C38.597,20.898,37.534,21.338,36.75,22.122C35.967,22.906,35.526,23.969,35.526,25.077C35.526,26.186,35.967,27.249,36.75,28.033C37.534,28.817,38.597,29.257,39.706,29.257L81.501,29.257C82.61,29.257,83.673,28.817,84.457,28.033C85.24,27.249,85.681,26.186,85.681,25.077C85.681,23.969,85.24,22.906,84.457,22.122C83.673,21.338,82.61,20.898,81.501,20.898ZM81.501,41.796L56.424,41.796C55.316,41.796,54.252,42.236,53.469,43.02C52.685,43.803,52.244,44.867,52.244,45.975C52.244,47.084,52.685,48.147,53.469,48.93C54.252,49.714,55.316,50.155,56.424,50.155L81.501,50.155C82.61,50.155,83.673,49.714,84.457,48.93C85.24,48.147,85.681,47.084,85.681,45.975C85.681,44.867,85.24,43.803,84.457,43.02C83.673,42.236,82.61,41.796,81.501,41.796ZM81.501,41.796"/>
</g>
  <g id="Medium-S" transform="matrix(1.0,0.0,0.0,1.0,1703.9546538751774,635.6926788884944)">  <path stroke="none" stroke-opacity="1" stroke-miterlimit="4" fill-rule="nonzero" stroke-dasharray="none" fill-opacity="1" stroke-linecap="butt" fill="#000000" stroke-width="1px" stroke-linejoin="miter" d="M6.269,0C5.443,0,4.635,0.245,3.947,0.704C3.26,1.164,2.724,1.816,2.408,2.58C2.092,3.344,2.009,4.184,2.17,4.995C2.331,5.806,2.729,6.55,3.314,7.135C3.898,7.719,4.643,8.118,5.454,8.279C6.265,8.44,7.105,8.357,7.869,8.041C8.632,7.725,9.285,7.189,9.745,6.502C10.204,5.814,10.449,5.006,10.449,4.18C10.449,3.071,10.009,2.008,9.225,1.224C8.441,0.44,7.378,0,6.269,0ZM22.988,8.359L81.501,8.359C82.61,8.359,83.673,7.919,84.457,7.135C85.24,6.351,85.681,5.288,85.681,4.18C85.681,3.071,85.24,2.008,84.457,1.224C83.673,0.44,82.61,0,81.501,0L22.988,0C21.879,0,20.816,0.44,20.032,1.224C19.248,2.008,18.808,3.071,18.808,4.18C18.808,5.288,19.248,6.351,20.032,7.135C20.816,7.919,21.879,8.359,22.988,8.359ZM22.988,20.898C22.161,20.898,21.353,21.143,20.666,21.602C19.978,22.061,19.443,22.714,19.126,23.478C18.81,24.242,18.727,25.082,18.888,25.893C19.05,26.703,19.448,27.448,20.032,28.033C20.617,28.617,21.361,29.015,22.172,29.177C22.983,29.338,23.823,29.255,24.587,28.939C25.351,28.622,26.003,28.087,26.463,27.399C26.922,26.712,27.167,25.904,27.167,25.077C27.167,23.969,26.727,22.906,25.943,22.122C25.159,21.338,24.096,20.898,22.988,20.898ZM39.706,41.796C38.879,41.796,38.071,42.04,37.384,42.5C36.696,42.959,36.161,43.612,35.844,44.376C35.528,45.139,35.445,45.98,35.607,46.791C35.768,47.601,36.166,48.346,36.75,48.93C37.335,49.515,38.08,49.913,38.89,50.074C39.701,50.236,40.542,50.153,41.305,49.837C42.069,49.52,42.722,48.984,43.181,48.297C43.64,47.61,43.885,46.802,43.885,45.975C43.885,44.867,43.445,43.803,42.661,43.02C41.877,42.236,40.814,41.796,39.706,41.796ZM81.501,20.898L39.706,20.898C38.597,20.898,37.534,21.338,36.75,22.122C35.967,22.906,35.526,23.969,35.526,25.077C35.526,26.186,35.967,27.249,36.75,28.033C37.534,28.817,38.597,29.257,39.706,29.257L81.501,29.257C82.61,29.257,83.673,28.817,84.457,28.033C85.24,27.249,85.681,26.186,85.681,25.077C85.681,23.969,85.24,22.906,84.457,22.122C83.673,21.338,82.61,20.898,81.501,20.898ZM81.501,41.796L56.424,41.796C55.316,41.796,54.252,42.236,53.469,43.02C52.685,43.803,52.244,44.867,52.244,45.975C52.244,47.084,52.685,48.147,53.469,48.93C54.252,49.714,55.316,50.155,56.424,50.155L81.501,50.155C82.61,50.155,83.673,49.714,84.457,48.93C85.24,48.147,85.681,47.084,85.681,45.975C85.681,44.867,85.24,43.803,84.457,43.02C83.673,42.236,82.61,41.796,81.501,41.796ZM81.501,41.796"/>
</g>
  <g id="Regular-S" transform="matrix(1.0,0.0,0.0,1.0,1407.2446538751774,635.6926788884944)">  <path stroke-linecap="butt" stroke-opacity="1" fill-opacity="1" fill="#000000" stroke-width="1px" fill-rule="nonzero" stroke="none" stroke-miterlimit="4" stroke-linejoin="miter" stroke-dasharray="none" d="M6.269,0C5.443,0,4.635,0.245,3.947,0.704C3.26,1.164,2.724,1.816,2.408,2.58C2.092,3.344,2.009,4.184,2.17,4.995C2.331,5.806,2.729,6.55,3.314,7.135C3.898,7.719,4.643,8.118,5.454,8.279C6.265,8.44,7.105,8.357,7.869,8.041C8.632,7.725,9.285,7.189,9.745,6.502C10.204,5.814,10.449,5.006,10.449,4.18C10.449,3.071,10.009,2.008,9.225,1.224C8.441,0.44,7.378,0,6.269,0ZM22.988,8.359L81.501,8.359C82.61,8.359,83.673,7.919,84.457,7.135C85.24,6.351,85.681,5.288,85.681,4.18C85.681,3.071,85.24,2.008,84.457,1.224C83.673,0.44,82.61,0,81.501,0L22.988,0C21.879,0,20.816,0.44,20.032,1.224C19.248,2.008,18.808,3.071,18.808,4.18C18.808,5.288,19.248,6.351,20.032,7.135C20.816,7.919,21.879,8.359,22.988,8.359ZM22.988,20.898C22.161,20.898,21.353,21.143,20.666,21.602C19.978,22.061,19.443,22.714,19.126,23.478C18.81,24.242,18.727,25.082,18.888,25.893C19.05,26.703,19.448,27.448,20.032,28.033C20.617,28.617,21.361,29.015,22.172,29.177C22.983,29.338,23.823,29.255,24.587,28.939C25.351,28.622,26.003,28.087,26.463,27.399C26.922,26.712,27.167,25.904,27.167,25.077C27.167,23.969,26.727,22.906,25.943,22.122C25.159,21.338,24.096,20.898,22.988,20.898ZM39.706,41.796C38.879,41.796,38.071,42.04,37.384,42.5C36.696,42.959,36.161,43.612,35.844,44.376C35.528,45.139,35.445,45.98,35.607,46.791C35.768,47.601,36.166,48.346,36.75,48.93C37.335,49.515,38.08,49.913,38.89,50.074C39.701,50.236,40.542,50.153,41.305,49.837C42.069,49.52,42.722,48.984,43.181,48.297C43.64,47.61,43.885,46.802,43.885,45.975C43.885,44.867,43.445,43.803,42.661,43.02C41.877,42.236,40.814,41.796,39.706,41.796ZM81.501,20.898L39.706,20.898C38.597,20.898,37.534,21.338,36.75,22.122C35.967,22.906,35.526,23.969,35.526,25.077C35.526,26.186,35.967,27.249,36.75,28.033C37.534,28.817,38.597,29.257,39.706,29.257L81.501,29.257C82.61,29.257,83.673,28.817,84.457,28.033C85.24,27.249,85.681,26.186,85.681,25.077C85.681,23.969,85.24,22.906,84.457,22.122C83.673,21.338,82.61,20.898,81.501,20.898ZM81.501,41.796L56.424,41.796C55.316,41.796,54.252,42.236,53.469,43.02C52.685,43.803,52.244,44.867,52.244,45.975C52.244,47.084,52.685,48.147,53.469,48.93C54.252,49.714,55.316,50.155,56.424,50.155L81.501,50.155C82.61,50.155,83.673,49.714,84.457,48.93C85.24,48.147,85.681,47.084,85.681,45.975C85.681,44.867,85.24,43.803,84.457,43.02C83.673,42.236,82.61,41.796,81.501,41.796ZM81.501,41.796"/>
</g>
  <g id="Light-S" transform="matrix(1.0,0.0,0.0,1.0,1110.5346538751776,635.6926788884944)">  <path stroke-width="1px" stroke-linejoin="miter" fill-opacity="1" stroke-opacity="1" stroke-miterlimit="4" stroke="none" stroke-dasharray="none" stroke-linecap="butt" fill="#000000" fill-rule="nonzero" d="M6.269,0C5.443,0,4.635,0.245,3.947,0.704C3.26,1.164,2.724,1.816,2.408,2.58C2.092,3.344,2.009,4.184,2.17,4.995C2.331,5.806,2.729,6.55,3.314,7.135C3.898,7.719,4.643,8.118,5.454,8.279C6.265,8.44,7.105,8.357,7.869,8.041C8.632,7.725,9.285,7.189,9.745,6.502C10.204,5.814,10.449,5.006,10.449,4.18C10.449,3.071,10.009,2.008,9.225,1.224C8.441,0.44,7.378,0,6.269,0ZM22.988,8.359L81.501,8.359C82.61,8.359,83.673,7.919,84.457,7.135C85.24,6.351,85.681,5.288,85.681,4.18C85.681,3.071,85.24,2.008,84.457,1.224C83.673,0.44,82.61,0,81.501,0L22.988,0C21.879,0,20.816,0.44,20.032,1.224C19.248,2.008,18.808,3.071,18.808,4.18C18.808,5.288,19.248,6.351,20.032,7.135C20.816,7.919,21.879,8.359,22.988,8.359ZM22.988,20.898C22.161,20.898,21.353,21.143,20.666,21.602C19.978,22.061,19.443,22.714,19.126,23.478C18.81,24.242,18.727,25.082,18.888,25.893C19.05,26.703,19.448,27.448,20.032,28.033C20.617,28.617,21.361,29.015,22.172,29.177C22.983,29.338,23.823,29.255,24.587,28.939C25.351,28.622,26.003,28.087,26.463,27.399C26.922,26.712,27.167,25.904,27.167,25.077C27.167,23.969,26.727,22.906,25.943,22.122C25.159,21.338,24.096,20.898,22.988,20.898ZM39.706,41.796C38.879,41.796,38.071,42.04,37.384,42.5C36.696,42.959,36.161,43.612,35.844,44.376C35.528,45.139,35.445,45.98,35.607,46.791C35.768,47.601,36.166,48.346,36.75,48.93C37.335,49.515,38.08,49.913,38.89,50.074C39.701,50.236,40.542,50.153,41.305,49.837C42.069,49.52,42.722,48.984,43.181,48.297C43.64,47.61,43.885,46.802,43.885,45.975C43.885,44.867,43.445,43.803,42.661,43.02C41.877,42.236,40.814,41.796,39.706,41.796ZM81.501,20.898L39.706,20.898C38.597,20.898,37.534,21.338,36.75,22.122C35.967,22.906,35.526,23.969,35.526,25.077C35.526,26.186,35.967,27.249,36.75,28.033C37.534,28.817,38.597,29.257,39.706,29.257L81.501,29.257C82.61,29.257,83.673,28.817,84.457,28.033C85.24,27.249,85.681,26.186,85.681,25.077C85.681,23.969,85.24,22.906,84.457,22.122C83.673,21.338,82.61,20.898,81.501,20.898ZM81.501,41.796L56.424,41.796C55.316,41.796,54.252,42.236,53.469,43.02C52.685,43.803,52.244,44.867,52.244,45.975C52.244,47.084,52.685,48.147,53.469,48.93C54.252,49.714,55.316,50.155,56.424,50.155L81.501,50.155C82.61,50.155,83.673,49.714,84.457,48.93C85.24,48.147,85.681,47.084,85.681,45.975C85.681,44.867,85.24,43.803,84.457,43.02C83.673,42.236,82.61,41.796,81.501,41.796ZM81.501,41.796"/>
</g>
  <g id="Thin-S" transform="matrix(1.0,0.0,0.0,1.0,813.8246538751775,635.6926788884944)">  <path stroke-width="1px" stroke="none" stroke-linecap="butt" stroke-miterlimit="4" stroke-linejoin="miter" stroke-opacity="1" fill-opacity="1" stroke-dasharray="none" fill="#000000" fill-rule="nonzero" d="M6.269,0C5.443,0,4.635,0.245,3.947,0.704C3.26,1.164,2.724,1.816,2.408,2.58C2.092,3.344,2.009,4.184,2.17,4.995C2.331,5.806,2.729,6.55,3.314,7.135C3.898,7.719,4.643,8.118,5.454,8.279C6.265,8.44,7.105,8.357,7.869,8.041C8.632,7.725,9.285,7.189,9.745,6.502C10.204,5.814,10.449,5.006,10.449,4.18C10.449,3.071,10.009,2.008,9.225,1.224C8.441,0.44,7.378,0,6.269,0ZM22.988,8.359L81.501,8.359C82.61,8.359,83.673,7.919,84.457,7.135C85.24,6.351,85.681,5.288,85.681,4.18C85.681,3.071,85.24,2.008,84.457,1.224C83.673,0.44,82.61,0,81.501,0L22.988,0C21.879,0,20.816,0.44,20.032,1.224C19.248,2.008,18.808,3.071,18.808,4.18C18.808,5.288,19.248,6.351,20.032,7.135C20.816,7.919,21.879,8.359,22.988,8.359ZM22.988,20.898C22.161,20.898,21.353,21.143,20.666,21.602C19.978,22.061,19.443,22.714,19.126,23.478C18.81,24.242,18.727,25.082,18.888,25.893C19.05,26.703,19.448,27.448,20.032,28.033C20.617,28.617,21.361,29.015,22.172,29.177C22.983,29.338,23.823,29.255,24.587,28.939C25.351,28.622,26.003,28.087,26.463,27.399C26.922,26.712,27.167,25.904,27.167,25.077C27.167,23.969,26.727,22.906,25.943,22.122C25.159,21.338,24.096,20.898,22.988,20.898ZM39.706,41.796C38.879,41.796,38.071,42.04,37.384,42.5C36.696,42.959,36.161,43.612,35.844,44.376C35.528,45.139,35.445,45.98,35.607,46.791C35.768,47.601,36.166,48.346,36.75,48.93C37.335,49.515,38.08,49.913,38.89,50.074C39.701,50.236,40.542,50.153,41.305,49.837C42.069,49.52,42.722,48.984,43.181,48.297C43.64,47.61,43.885,46.802,43.885,45.975C43.885,44.867,43.445,43.803,42.661,43.02C41.877,42.236,40.814,41.796,39.706,41.796ZM81.501,20.898L39.706,20.898C38.597,20.898,37.534,21.338,36.75,22.122C35.967,22.906,35.526,23.969,35.526,25.077C35.526,26.186,35.967,27.249,36.75,28.033C37.534,28.817,38.597,29.257,39.706,29.257L81.501,29.257C82.61,29.257,83.673,28.817,84.457,28.033C85.24,27.249,85.681,26.186,85.681,25.077C85.681,23.969,85.24,22.906,84.457,22.122C83.673,21.338,82.61,20.898,81.501,20.898ZM81.501,41.796L56.424,41.796C55.316,41.796,54.252,42.236,53.469,43.02C52.685,43.803,52.244,44.867,52.244,45.975C52.244,47.084,52.685,48.147,53.469,48.93C54.252,49.714,55.316,50.155,56.424,50.155L81.501,50.155C82.61,50.155,83.673,49.714,84.457,48.93C85.24,48.147,85.681,47.084,85.681,45.975C85.681,44.867,85.24,43.803,84.457,43.02C83.673,42.236,82.61,41.796,81.501,41.796ZM81.501,41.796"/>
</g>
  <g id="Ultralight-S" transform="matrix(1.0,0.0,0.0,1.0,517.1146538751775,635.6926788884944)">  <path stroke-width="1px" stroke="none" stroke-linejoin="miter" stroke-dasharray="none" stroke-linecap="butt" fill="#000000" stroke-miterlimit="4" fill-opacity="1" fill-rule="nonzero" stroke-opacity="1" d="M6.269,0C5.443,0,4.635,0.245,3.947,0.704C3.26,1.164,2.724,1.816,2.408,2.58C2.092,3.344,2.009,4.184,2.17,4.995C2.331,5.806,2.729,6.55,3.314,7.135C3.898,7.719,4.643,8.118,5.454,8.279C6.265,8.44,7.105,8.357,7.869,8.041C8.632,7.725,9.285,7.189,9.745,6.502C10.204,5.814,10.449,5.006,10.449,4.18C10.449,3.071,10.009,2.008,9.225,1.224C8.441,0.44,7.378,0,6.269,0ZM22.988,8.359L81.501,8.359C82.61,8.359,83.673,7.919,84.457,7.135C85.24,6.351,85.681,5.288,85.681,4.18C85.681,3.071,85.24,2.008,84.457,1.224C83.673,0.44,82.61,0,81.501,0L22.988,0C21.879,0,20.816,0.44,20.032,1.224C19.248,2.008,18.808,3.071,18.808,4.18C18.808,5.288,19.248,6.351,20.032,7.135C20.816,7.919,21.879,8.359,22.988,8.359ZM22.988,20.898C22.161,20.898,21.353,21.143,20.666,21.602C19.978,22.061,19.443,22.714,19.126,23.478C18.81,24.242,18.727,25.082,18.888,25.893C19.05,26.703,19.448,27.448,20.032,28.033C20.617,28.617,21.361,29.015,22.172,29.177C22.983,29.338,23.823,29.255,24.587,28.939C25.351,28.622,26.003,28.087,26.463,27.399C26.922,26.712,27.167,25.904,27.167,25.077C27.167,23.969,26.727,22.906,25.943,22.122C25.159,21.338,24.096,20.898,22.988,20.898ZM39.706,41.796C38.879,41.796,38.071,42.04,37.384,42.5C36.696,42.959,36.161,43.612,35.844,44.376C35.528,45.139,35.445,45.98,35.607,46.791C35.768,47.601,36.166,48.346,36.75,48.93C37.335,49.515,38.08,49.913,38.89,50.074C39.701,50.236,40.542,50.153,41.305,49.837C42.069,49.52,42.722,48.984,43.181,48.297C43.64,47.61,43.885,46.802,43.885,45.975C43.885,44.867,43.445,43.803,42.661,43.02C41.877,42.236,40.814,41.796,39.706,41.796ZM81.501,20.898L39.706,20.898C38.597,20.898,37.534,21.338,36.75,22.122C35.967,22.906,35.526,23.969,35.526,25.077C35.526,26.186,35.967,27.249,36.75,28.033C37.534,28.817,38.597,29.257,39.706,29.257L81.501,29.257C82.61,29.257,83.673,28.817,84.457,28.033C85.24,27.249,85.681,26.186,85.681,25.077C85.681,23.969,85.24,22.906,84.457,22.122C83.673,21.338,82.61,20.898,81.501,20.898ZM81.501,41.796L56.424,41.796C55.316,41.796,54.252,42.236,53.469,43.02C52.685,43.803,52.244,44.867,52.244,45.975C52.244,47.084,52.685,48.147,53.469,48.93C54.252,49.714,55.316,50.155,56.424,50.155L81.501,50.155C82.61,50.155,83.673,49.714,84.457,48.93C85.24,48.147,85.681,47.084,85.681,45.975C85.681,44.867,85.24,43.803,84.457,43.02C83.673,42.236,82.61,41.796,81.501,41.796ZM81.501,41.796"/>
</g>
 </g>
</svg>
